<?xml version="1.0"?><svg width="1600" height="1200" xmlns="http://www.w3.org/2000/svg">
 <title>tree in a circle</title>
 <metadata id="metadata7">image/svg+xml</metadata>
 <g>
  <title>Layer 1</title>
  <ellipse ry="570" rx="570" id="svg_6" cy="610" cx="790" stroke-linecap="null" stroke-linejoin="null" stroke-dasharray="null" stroke-width="10" stroke="#000000" fill="#ffffff"/>
  <g id="svg_13">
   <path d="m768.703613,79.071411l-0.385864,6.300705c-0.167969,3.467072 -0.515259,13.921844 -0.770996,23.264343l-0.385864,16.963501l-11.37854,-9.85495c-13.155457,-11.470367 -14.908447,-11.928314 -14.849487,-4.039032c0.023865,3.198914 5.387817,10.710571 11.860168,16.721191c10.366211,9.626251 11.821899,12.659668 12.43927,25.445221c0.466431,9.653107 -0.438416,13.964966 -2.603455,12.843964c-1.790894,-0.927216 -3.181885,-3.363556 -3.181885,-5.41217c0,-2.048676 -1.388733,-3.715851 -3.085815,-3.715851c-1.697449,0 -3.085449,-4.503662 -3.085449,-10.016571c0,-11.472931 -7.769165,-19.49054 -12.632202,-13.086182c-1.549927,2.041229 -2.190735,5.08078 -1.446228,6.7854c1.644104,3.765594 -7.236572,1.311096 -13.210327,-3.63501c-2.242554,-1.856689 -5.857178,-3.311829 -8.100159,-3.311829c-8.345337,0 -6.978516,7.29184 3.182251,17.04425c12.085205,11.599762 12.739319,13.915344 4.724976,15.671051c-3.937683,0.86261 -5.289001,2.869019 -4.242981,6.220001c1.736389,5.561798 10.016235,6.553619 15.621155,1.858032c4.200684,-3.519318 4.307739,-3.334351 5.014404,6.381378c0.589417,8.108704 0.053711,8.290375 -10.510742,3.231079c-10.34314,-4.953308 -12.342407,-4.829224 -12.342407,1.050262c0,2.740387 4.512756,7.934479 10.028381,11.551117c7.524414,4.934204 8.361206,6.240662 3.471252,5.170074c-4.257385,-0.932343 -7.166504,-0.003235 -8.389221,2.665497c-2.656372,5.799561 -4.805542,5.319763 -25.360168,-5.896851c-10.087769,-5.504761 -19.863037,-9.554474 -21.695923,-8.966309c-6.423584,2.061737 -2.345093,11.926605 6.653564,16.075043l9.064087,4.119598l-8.292725,0.80777c-4.523376,0.452454 -8.950256,2.429932 -9.835449,4.362122c-1.73114,3.778931 5.983582,7.482513 10.606812,5.088989c1.544189,-0.799255 2.892822,-0.213074 2.892822,1.29245c0,1.505463 2.429871,2.795837 5.399902,2.90802c3.921448,0.148285 4.196106,0.575378 1.06073,1.615631c-3.271118,1.085236 -2.627686,2.550201 2.796448,5.977631l7.231934,4.523621l-12.921204,1.858032c-13.293518,1.881287 -16.321838,6.035797 -8.388855,11.551132c2.989319,2.078461 6.14325,2.28656 9.642517,0.646545c5.819397,-2.728546 16.778015,-1.203186 16.778015,2.342346c0,1.25592 2.777161,2.342499 6.171265,2.342499c3.394104,0 6.17157,-1.162994 6.17157,-2.584747c0,-1.421814 3.124023,-2.551453 6.942627,-2.504211l6.942566,0.080933l-7.617493,5.250427c-5.918152,4.126251 -6.654663,5.733521 -3.375183,7.431946c4.631897,2.397827 12.629211,0.644348 16.585449,-3.635315c1.431519,-1.54837 1.804871,0.393433 0.771362,4.362122c-1.541565,5.919434 -0.848877,7.108368 4.339111,7.108368c3.426697,0 6.326721,-1.454102 6.460632,-3.23111c0.166077,-2.204834 0.76001,-2.068054 1.928589,0.403931c1.249512,2.644165 2.808533,1.924561 5.68927,-2.5849l3.953247,-6.220001l3.857178,7.108612c2.120728,3.899231 2.877319,7.928925 1.63916,8.966522c-1.238525,1.037384 -12.30011,2.307251 -24.58844,2.82724c-20.561768,0.869629 -23.542419,0.349457 -37.124207,-6.866302c-13.523865,-7.184845 -23.43158,-8.386047 -23.43158,-2.82724c0,1.223999 3.818176,4.076416 8.485291,6.30072l8.485657,4.03894l-10.799744,-1.696289c-10.6828,-1.637878 -28.654785,-9.392273 -36.545776,-15.832703c-2.242554,-1.830261 -6.75531,-3.31189 -10.028015,-3.31189c-6.288086,0 -7.918579,4.998657 -2.989319,9.128113c1.851013,1.550964 -2.891724,2.801697 -12.921265,3.311646c-8.734192,0.444214 -17.053772,1.394348 -18.417175,2.100342c-10.146057,5.252991 14.855103,14.792786 32.9776,12.601471l12.438965,-1.454071l-8.678223,4.119751c-5.254639,2.49823 -8.341919,5.841309 -7.714355,8.481812c1.502258,6.319702 14.834351,4.201965 23.33551,-3.715851c3.955872,-3.684479 9.305481,-6.098572 12.342468,-5.492828c4.258118,0.848907 3.70697,1.707764 -2.796387,3.958038c-10.50769,3.635712 -13.696045,7.888947 -7.328491,9.935699c2.750671,0.884277 4.310364,3.096039 3.471313,4.927612c-0.83905,1.831451 0.550781,3.981995 2.989319,4.76593c2.438538,0.783936 4.435608,0.403503 4.435608,-0.8078c0,-2.113281 9.970459,-5.734497 17.452881,-6.381531c1.968689,-0.170288 6.481445,-2.561493 10.028381,-5.250549c3.547363,-2.68924 6.460632,-4.021606 6.460632,-2.988861c0,2.683197 -6.743164,7.960114 -14.752991,11.551422c-3.783752,1.696198 -6.846497,4.23819 -6.846497,5.654358c0,4.875824 9.500671,5.632629 15.331787,1.211823c5.567139,-4.220703 5.755127,-4.184296 4.146606,0.969391c-2.354553,7.542145 3.961182,6.791931 10.220947,-1.211731c3.915771,-5.006317 5.835632,-5.792908 7.81073,-3.231445c2.144226,2.781372 3.020752,2.75708 5.20697,-0.080566c1.463257,-1.899658 5.281433,-3.168274 8.485657,-2.827209c12.450256,1.325256 28.817871,-7.997192 29.313049,-16.721283c0.267456,-4.705811 0.57428,-4.565338 2.507385,1.050354c1.83667,5.335052 0.321533,7.923889 -8.775085,14.782349c-6.059631,4.569061 -19.58197,12.078583 -30.084778,16.721222l-19.092468,8.400818l-14.849426,-6.219727c-8.165649,-3.416443 -16.58551,-6.447754 -18.706665,-6.7854c-5.506531,-0.876801 -4.76355,4.116486 1.542725,10.339447c4.858887,4.794891 4.833557,4.925385 0.096497,1.857941c-2.895935,-1.874878 -6.438354,-2.779968 -7.90686,-2.019379c-1.468994,0.760376 -6.542725,-0.282776 -11.282104,-2.342621c-11.365295,-4.939575 -14.910767,-4.696533 -12.824768,0.807739c1.38269,3.649414 -0.068481,4.466919 -7.520996,4.281433c-5.080994,-0.126526 -9.959167,-0.911438 -10.89624,-1.696472c-3.756531,-3.146912 -13.692627,1.487183 -13.692627,6.381653c0,3.973022 1.499634,4.883118 6.460632,3.796448c6.194336,-1.356873 6.233276,-1.233917 1.060425,3.554382c-5.585632,5.170563 -4.669373,5.882507 7.039429,5.088959c5.38208,-0.365021 6.498413,0.507355 4.91748,3.958221c-1.667542,3.640564 -0.603394,4.254181 5.785767,3.231171c6.385742,-1.022736 7.48053,-0.411682 6.2677,3.473358c-1.648621,5.281464 0.30603,5.850861 8.003357,2.423462c7.56488,-3.368347 17.115845,7.330231 10.896179,12.19751c-3.480347,2.72348 -4.535828,2.615845 -5.882202,-0.323212c-0.923035,-2.015076 -6.390259,-3.686676 -12.438904,-3.877319c-5.932556,-0.186707 -10.08136,0.690948 -9.160583,1.938904c0.920776,1.247833 -1.039185,1.632507 -4.435547,0.888458c-7.792664,-1.707153 -8.033997,2.218567 -0.385498,6.220062c4.048157,2.118042 5.303406,4.963501 4.242615,9.612549c-1.86615,8.178925 -2.336365,8.247131 -13.692627,0.24231c-5.041992,-3.55426 -11.180664,-6.462372 -13.59613,-6.462372c-5.171753,0 -5.435059,1.268738 -1.446228,7.512604c3.238281,5.068481 1.206421,5.190399 -22.177917,1.453888c-7.62085,-1.217712 -11.571472,-0.878662 -11.571472,0.969299c0,3.346588 16.022583,10.743591 23.33551,10.743591c4.218079,0 4.465088,0.651672 1.349792,3.796661c-3.065735,3.094574 -2.957214,4.163574 0.674866,5.331268c2.483582,0.798584 5.802368,1.208588 7.328491,0.969482c6.445496,-1.009705 10.459595,0.455597 9.738953,3.473572c-0.473633,1.983582 2.504761,3.157837 7.713928,3.069397c6.52948,-0.110596 8.503479,1.081299 8.582153,5.169922c0.098755,5.103729 0.342346,5.053345 6.171204,-0.80777c4.817688,-4.844269 6.075134,-5.203552 6.075134,-1.777161c0,2.373993 1.38501,3.626862 3.085449,2.746399c1.700439,-0.88028 4.406433,1.412903 6.075134,5.089142c1.668335,3.676208 5.143005,7.332214 7.713928,8.158691c2.570923,0.826416 4.724976,3.108643 4.724976,5.08905c0,1.980408 2.231262,3.634979 5.014038,3.634979c2.782776,0 6.812439,1.973999 8.96759,4.44278c3.693787,4.232056 4.378479,4.195099 11.185608,-0.64621l7.231995,-5.088959l-5.496338,5.41214c-3.321472,3.304047 -13.612,7.064728 -26.613831,9.693451c-27.173767,5.494537 -33.738037,5.322021 -44.838135,-0.807983c-10.281494,-5.677521 -15.297791,-4.625305 -12.5354,2.665833c1.551025,4.093872 0.37146,5.00824 -6.942566,5.00824c-4.866516,0 -10.253479,-1.157837 -11.95697,-2.584808c-2.072754,-1.736145 -5.071533,-1.395752 -9.064087,1.050049c-5.728638,3.509247 -5.589783,3.835022 3.953613,8.400909c7.194519,3.442322 9.47229,6.057373 8.196228,9.450989c-1.137512,3.024719 -0.251526,4.504852 2.410583,4.200745c8.93396,-1.020813 12.398804,0.256592 10.703247,3.958008c-2.960571,6.462708 8.304443,9.544983 16.874512,4.604523c5.621948,-3.241028 6.45343,-3.394623 3.664246,-0.484619c-5.211121,5.437775 -0.2005,11.12204 7.907227,8.966339c11.684937,-3.106995 14.833923,1.863037 3.374817,5.331421c-14.720093,4.455078 -29.403442,4.367554 -34.90625,-0.242371c-6.086853,-5.099121 -15.53833,-5.16156 -13.210632,-0.080627c1.440186,3.144104 -0.708923,3.564209 -12.053406,2.261719c-16.601013,-1.906189 -18.680176,2.391296 -3.374817,7.027649c7.423401,2.24884 10.049927,4.434753 9.064087,7.593201c-1.647888,5.278259 8.0979,8.212219 15.621155,4.684937c4.092834,-1.918518 5.110474,-1.169983 5.110474,3.958374c0,5.240723 1.129639,6.137573 6.653564,4.927734c5.457397,-1.195801 6.252197,-0.685669 4.532043,3.069397c-1.686096,3.680969 -0.823914,4.400757 4.146179,3.312012c3.419495,-0.749329 6.2677,-0.319458 6.2677,0.969177c0,4.529724 6.526855,2.259155 14.753357,-5.08905c9.908508,-8.850952 15.774414,-10.806885 23.045715,-7.673889c8.452026,3.641541 6.339233,6.5849 -3.857117,5.331543c-10.626465,-1.306763 -12.193054,2.630676 -4.531677,11.793518c4.480225,5.358826 4.460571,5.735229 -1.253723,5.735229c-3.369507,0 -8.25415,1.744812 -10.799683,3.877502c-2.545593,2.132446 -6.690308,3.877319 -9.25708,3.877319c-2.566772,0 -5.477783,1.091064 -6.460632,2.42334c-0.982788,1.332336 -7.192627,2.338013 -13.788696,2.26178c-6.596008,-0.076233 -13.792053,0.79187 -16.007019,1.938599c-2.214966,1.147034 -8.525391,1.842651 -13.981628,1.53479c-8.215942,-0.46344 -10.07074,0.457947 -10.89624,5.331604c-0.717224,4.233765 -3.128174,5.937256 -8.678223,6.139038c-4.243042,0.154053 -9.103027,0.60437 -10.799744,0.969238c-1.697021,0.365234 -5.515625,0.414673 -8.485657,0.161499c-2.970032,-0.252686 -5.399841,0.572754 -5.399841,1.777283c0,3.426941 17.076477,11.06665 24.781372,11.06665c6.749634,0 6.874451,0.145508 1.446594,5.169861c-5.450195,5.044983 -5.393066,5.170044 2.507019,5.170044c6.046021,0 7.639038,0.963928 6.2677,3.957947c-1.496582,3.267761 -0.195984,3.692627 7.039001,2.26178c4.881592,-0.965149 9.565369,-1.710205 10.414246,-1.696472c9.62323,0.15802 11.860168,1.043884 10.413879,4.200623c-3.222351,7.035217 4.77002,6.837891 9.353516,-0.242554c4.362976,-6.739624 4.608826,-6.828552 4.724976,-1.373047c0.067749,3.199097 1.234009,5.902649 2.507019,6.058594c18.854126,2.308655 21.94751,1.542969 25.745667,-6.13916l3.857117,-7.755005l2.699951,6.139343l2.699951,6.219727l5.978638,-6.462097c5.918152,-6.453064 5.909485,-6.460754 5.978333,-0.646423c0.092285,7.84375 5.593201,7.398071 8.003357,-0.646179c1.06488,-3.554199 3.304443,-6.462036 4.917908,-6.462036c1.613037,0 1.931946,1.25354 0.771362,2.827087c-1.475037,1.999329 0.91394,2.336731 7.90686,1.050354c7.424927,-1.366272 9.740479,-1.053589 8.774658,1.37323c-1.895996,4.764465 -21.221558,12.843994 -30.76001,12.843994c-4.512024,0 -8.829163,1.453674 -9.642517,3.230835c-0.909058,1.986084 -6.940308,3.115967 -15.717651,2.988892c-7.853577,-0.113892 -14.271057,0.698547 -14.271057,1.777039c0,4.974854 10.709717,10.357788 19.188965,9.612549c5.038574,-0.442688 9.391296,0.215515 9.642517,1.534851c0.820496,4.305481 -17.270203,6.726807 -61.230713,8.158752c-49.540405,1.613647 -69.426941,3.431274 -69.426941,6.219727c0,1.075684 -3.471313,1.406555 -7.714294,0.727173c-4.381531,-0.701843 -7.713989,-0.052917 -7.713989,1.534912c0,3.623047 10.080994,8.158447 18.22467,8.158447c3.505737,0 6.460632,1.163269 6.460632,2.585205c0,1.42157 -1.510559,2.5849 -3.27832,2.5849c-1.768188,0 -6.280945,2.401733 -10.028442,5.411682l-6.75,5.493225l10.028381,-1.13092c6.633545,-0.759338 10.028381,-0.088989 10.028381,2.019592c0,1.915039 2.463867,2.669922 6.171265,1.857971c3.450073,-0.755981 6.17157,-0.079163 6.17157,1.53479c0,4.174438 7.848999,3.566162 12.342468,-0.969666c2.112427,-2.132507 5.18988,-3.877014 6.942566,-3.877014c1.752319,0 0.976807,2.085205 -1.832092,4.684875c-2.808899,2.60022 -5.110474,5.508057 -5.110474,6.462524c0,2.739746 11.768188,2.06134 13.885132,-0.807678c3.05481,-4.140869 7.141235,-2.999756 9.25708,2.584717c2.477478,6.5401 5.999084,6.498474 17.163879,-0.161499l8.967651,-5.331421l-1.928589,7.91626c-2.323547,9.732788 3.28363,10.518738 15.813721,2.262024c8.231812,-5.424561 8.462585,-5.419434 5.207336,-0.323242c-3.83374,5.999939 -1.989136,8.850647 4.435547,6.785461c2.401062,-0.772095 6.443237,0.022339 8.967651,1.776917c3.187927,2.216614 4.628479,2.338928 4.628479,0.323059c0,-1.595703 2.082947,-2.907837 4.62854,-2.907837c2.545593,0 4.62854,1.599304 4.62854,3.63501c0,2.509216 2.732056,3.453979 8.485291,2.908081c32.120422,-3.046997 -9.423096,12.60022 -46.766724,17.609741c-24.414063,3.27478 -26.863586,3.150146 -34.90625,-1.292664c-4.753357,-2.625366 -10.317749,-4.756348 -12.438904,-4.76593c-6.38269,-0.028076 -4.345154,5.147095 3.085388,7.835571c5.097656,1.844421 3.252686,2.04187 -6.942566,0.72699c-7.637146,-0.98468 -17.356812,-1.631287 -21.599487,-1.453796c-4.242981,0.177246 -14.599731,-1.356201 -22.949646,-3.393005c-8.349854,-2.03656 -15.646454,-3.371399 -16.199585,-2.907776c-3.21933,2.696899 16.535156,13.356079 27.578125,14.863037l13.113831,1.777222l-11.571106,0.323303c-8.057068,0.225281 -11.571106,1.500854 -11.571106,4.200195c0,2.132751 2.429871,4.065063 5.399902,4.281311c2.969666,0.216797 6.788208,0.63916 8.485291,0.969604c1.697083,0.330078 5.075684,0.724426 7.521362,0.888733c3.272339,0.219116 2.861511,1.259827 -1.542725,3.957947c-7.625366,4.670532 -4.003906,8.027466 4.531677,4.200562c5.31134,-2.381409 6.460632,-2.135132 6.460632,1.373047c0,3.315247 2.20813,3.990723 10.028381,3.069763c5.515625,-0.649963 12.805542,-2.026184 16.199646,-3.069763c6.083069,-1.870117 6.000244,-1.848938 0.096436,2.181213c-6.013062,4.103882 -4.724182,5.054749 5.303406,4.200378c3.07373,-0.261963 5.399902,1.33551 5.399902,3.635254c0,5.528809 2.498657,5.072205 9.835449,-1.777222l6.2677,-5.816101l-5.014038,7.027527c-2.730164,3.859802 -4.917542,8.19397 -4.917542,9.693665c0,3.995789 15.136963,1.04541 22.37085,-4.362183c6.06189,-4.532043 6.107666,-4.448059 3.760315,1.858093c-3.261719,8.762329 -7.049622,10.613708 -35.484619,17.770996c-23.619263,5.945374 -25.044678,6.019348 -37.799133,1.938782c-13.90332,-4.447876 -33.074463,-5.715759 -33.074463,-2.181091c0,1.13739 1.614563,3.533508 3.664612,5.25061c2.505493,2.099426 -1.619934,1.770447 -12.632263,-0.96936c-9.008087,-2.240906 -18.487549,-3.430054 -21.117126,-2.584656c-4.032684,1.296143 -3.66803,2.581604 2.314117,7.916138l7.038971,6.300903l-10.413879,-2.504272c-13.424011,-3.225281 -29.733337,-3.22113 -32.109802,0c-2.45285,3.324768 18.182709,10.404297 30.374207,10.42041l9.738953,0l-9.064087,6.058472c-8.946838,5.997192 -8.861298,13.865601 0.096436,10.985962c2.979584,-0.957947 4.339203,0.603088 4.339203,5.00824c0,4.579346 1.611511,6.381592 5.882172,6.381592c3.27301,0 8.102081,1.778931 10.703247,3.958313c3.926392,3.288818 5.769836,3.378296 10.99231,0.646057c3.460327,-1.810181 6.364502,-4.170837 6.364502,-5.250916c0,-1.079468 2.432129,0.097229 5.495972,2.585144c5.908691,4.797241 7.592163,10.985901 2.989319,10.985901c-1.514282,0 -1.73938,1.253662 -0.578369,2.827393c1.467407,1.989258 -0.817139,2.364014 -7.521423,1.130737c-6.152649,-1.13208 -9.642517,-0.810913 -9.642517,0.969238c0,1.583862 -6.004028,2.827393 -13.885529,2.827393c-14.460175,0 -17.18924,2.239746 -9.257019,7.754639c3.090332,2.14856 9.618683,2.71875 19.285431,1.696411l14.65686,-1.534668l-11.474609,5.088989c-7.968567,3.539185 -10.918915,6.341919 -9.642883,9.128052c1.147766,2.505005 3.721344,3.345215 6.846497,2.261719c2.75061,-0.953857 7.096924,-1.997192 9.642517,-2.342529c2.545593,-0.345581 2.892822,-0.126343 0.771301,0.484497c-7.815674,2.251343 -3.779175,6.4021 4.62854,4.766113c6.07251,-1.181885 7.201721,-0.916992 3.953613,0.88855c-8.16333,4.537109 -0.913574,5.854004 8.871155,1.615479c5.248962,-2.273926 9.546448,-3.036011 9.546448,-1.696411c0,1.339722 -1.736023,3.000488 -3.857178,3.635132c-2.12146,0.634766 -2.784302,2.115112 -1.446594,3.31189c1.33728,1.196777 6.383423,0.90271 11.282043,-0.64624c7.295166,-2.306885 8.682007,-2.148071 7.328125,0.807861c-1.191284,2.601196 -0.090088,3.084961 4.050049,1.857788c4.815002,-1.427002 5.122192,-1.088989 1.735657,1.938843c-3.156555,2.822021 -13.781128,3.498535 -48.598816,3.069702c-26.941467,-0.332153 -44.549103,0.434448 -44.549103,1.938599c0,1.368042 2.154755,2.50415 4.821442,2.50415c2.667023,0 6.779938,1.640503 9.160553,3.635132c3.714539,3.111694 3.637756,3.845215 -0.4823,5.169678c-2.640564,0.848877 -9.183655,1.512939 -14.560455,1.534668c-11.336548,0.045776 -19.117828,3.414551 -16.392212,7.108765c3.366516,4.563354 18.679779,5.392944 31.338531,1.696289c16.87677,-4.928589 17.79071,-4.644775 9.064087,2.665649c-10.88147,9.115723 -10.088959,14.61145 1.63913,11.793701c5.03598,-1.209961 10.590149,-2.970215 12.342468,-3.877319c1.752258,-0.907227 3.309387,0.497559 3.567749,3.069458c0.258789,2.571899 0.680542,5.99707 0.868225,7.674072c0.187256,1.676758 1.276733,3.896851 2.410522,4.846558c2.432068,2.03772 21.020691,-6.679443 21.020691,-9.854736c0,-1.199341 1.260498,-1.491211 2.892822,-0.646362c1.899841,0.983398 1.899841,3.891602 0,8.077881c-1.632324,3.596313 -2.892822,7.701904 -2.892822,9.12793c0,3.416748 14.581604,-5.427734 29.217285,-17.690552c10.917419,-9.147339 12.478271,-7.58374 2.314453,2.342651c-2.493347,2.434937 -3.605957,6.406494 -2.506958,8.804932c1.774231,3.874146 2.79187,3.653076 9.835022,-1.858032l8.003357,-6.139038l-1.060364,6.462158c-0.978271,5.933838 -3.079773,6.713135 -25.746033,9.855103c-15.928406,2.207886 -26.358154,2.548096 -29.409912,0.969238c-7.734741,-4.001343 -24.588806,-6.377075 -24.588806,-3.473389c0,1.435791 2.42984,3.160522 5.399902,3.796387c2.970032,0.635742 -1.542725,0.624756 -10.028412,0c-12.404846,-0.912964 -14.672394,-0.521851 -11.571075,2.100342c5.899994,4.988647 4.577393,6.843872 -3.856781,5.49292c-9.973511,-1.596924 -23.972992,1.387451 -21.599487,4.60437c1.017975,1.380249 5.011322,2.50415 8.870758,2.50415c13.189911,0 11.336945,3.557739 -4.724579,8.966431c-27.377258,9.219482 -21.403534,16.076172 6.749695,7.754883c14.249786,-4.21167 19.822205,-3.481934 9.353424,1.21167c-3.539368,1.586914 -6.364136,4.710205 -6.364136,6.946899c0,3.117981 1.868774,3.673035 8.19632,2.342712c7.28183,-1.531189 7.828522,-1.277405 4.242584,2.342407c-8.314667,8.392822 0.502747,8.412109 14.271057,0c6.426941,-3.926819 6.686462,-3.89032 4.917908,1.858032c-1.658875,5.390869 -1.325531,5.653198 3.374817,2.423462c4.640259,-3.188721 4.953857,-3.042358 3.085815,1.292358c-1.844604,4.278809 -1.116028,4.141113 5.592773,-0.96936c7.860352,-5.987915 12.694275,-5.48291 9.739014,0.96936c-2.357605,5.146118 5.03894,4.461426 16.778015,-1.534668c5.588257,-2.854492 10.028381,-3.83728 10.028381,-2.261841c0,1.750488 3.230713,2.207764 8.485657,1.211792c5.741516,-1.088501 6.98877,-0.856567 3.856812,0.727173c-2.545593,1.286987 -12.26532,3.636719 -21.599121,5.250244c-20.095703,3.473755 -26.336548,6.302979 -23.239014,10.501221c2.127197,2.883667 6.276001,2.57019 24.781738,-1.615479c4.726135,-1.069336 3.823486,0.572144 -3.857178,6.7854c-5.515625,4.461426 -10.028381,8.652466 -10.028381,9.370239c0,2.568481 17.156372,-0.62207 26.99939,-5.008057c10.815979,-4.819824 12.48053,-3.344849 5.303345,4.604126c-6.266907,6.941162 -5.664673,10.001099 1.639221,8.401123c4.010742,-0.878662 6.171204,-0.020142 6.171204,2.342529c0,4.834961 2.825134,4.57251 10.028381,-0.88855c5.695313,-4.317993 5.952209,-4.290161 4.917908,0.646118c-1.652405,7.887207 15.467224,5.509155 24.588867,-3.392578l7.135498,-6.947144l-2.025085,8.401123c-2.679871,11.117676 5.065857,11.408936 17.067444,0.646118c4.756042,-4.265015 9.050476,-7.755737 9.642517,-7.754761c0.592041,0.000854 1.287354,3.008545 1.542725,6.704834c0.702515,10.164185 5.72937,12.90564 12.149902,6.623657c5.069214,-4.959351 5.795593,-5.055054 9.546082,-0.968994c3.713379,4.045166 4.133301,3.983276 5.882202,-1.211914c1.131104,-3.360229 3.574158,-5.085205 6.074707,-4.281494c2.661011,0.855713 4.948608,-1.1698 6.2677,-5.573608c1.429626,-4.771973 2.866028,-5.973755 4.532471,-3.715698c1.332703,1.806885 5.311707,3.664551 8.870728,4.119629c5.025757,0.642822 7.975769,-1.717773 13.210693,-10.743286c6.759827,-11.65686 13.8927,-16.153687 10.220947,-6.462402c-2.371948,6.260498 -0.587524,6.425903 9.353455,0.969238c4.182922,-2.296265 7.710205,-6.658081 7.906921,-9.693359c0.286377,-4.415771 0.697205,-4.61438 1.832092,-0.969482c2.344299,7.529053 7.131714,2.302368 7.231995,-7.91626c0.07605,-7.735413 0.632141,-8.675842 3.182251,-5.00824c1.729187,2.487976 6.03656,4.523621 9.546082,4.523621c6.079651,0 6.316833,0.943604 4.339111,20.032959c-1.381958,13.338867 -4.619446,24.219604 -9.642517,32.553955c-2.941345,4.879639 -5.410889,9.225342 -6.653198,11.632202l76.755066,0c3.403198,-2.282349 1.87146,-6.289307 -1.639282,-13.328735c-5.47168,-10.970703 -7.582275,-33.37146 -3.27832,-34.57312c1.681519,-0.469727 5.468384,2.587158 8.485352,6.866211c5.624878,7.976563 12.540649,10.91626 9.353516,3.95813c-3.644653,-7.956299 2.094971,-3.599731 6.267578,4.765991c3.329834,6.676636 5.996826,8.670166 11.571167,8.319946c3.998291,-0.25061 9.270264,0.757813 11.667603,2.262085c3.125122,1.960693 4.708252,1.877686 5.592773,-0.323242c0.819336,-2.038696 3.261353,-1.387451 7.231934,1.938843c7.942505,6.653564 11.896484,6.333862 10.028442,-0.807861c-0.889404,-3.398682 -0.448364,-4.690186 1.060669,-3.069824c3.556885,3.821045 13.402832,6.601563 13.402832,3.796631c0,-2.609497 17.032349,-1.685303 25.939087,1.373413c4.6875,1.609741 5.554565,1.10376 4.050049,-2.181274c-1.04834,-2.287354 -0.290894,-4.625244 1.735229,-5.250366c2.813477,-0.867798 2.849731,-1.988403 -0.096436,-4.60437c-7.004272,-6.219849 -4.101929,-7.023315 7.424927,-2.100342c12.74231,5.442139 16.297241,4.643555 10.124878,-2.180908c-3.302246,-3.650879 -3.348022,-3.946411 -0.096191,-1.534668c2.245972,1.665771 5.953369,2.44812 8.292358,1.696045c2.338745,-0.751831 4.339233,-0.332642 4.339233,0.96936c0,1.302124 1.880859,4.564209 4.242554,7.270264c3.700562,4.239014 5.056763,4.427612 9.449951,1.373169c4.428833,-3.079468 5.674561,-2.703125 10.028442,2.504028l5.014038,5.977783l2.796387,-6.220093c2.577393,-5.779541 3.053223,-5.892944 6.75,-1.696289c4.884277,5.545166 7.067017,5.630981 13.11377,0.565552c3.761536,-3.151001 3.972229,-4.719116 0.964417,-7.754761c-2.073547,-2.093018 -2.851746,-3.796631 -1.735779,-3.796631c1.11615,0 0.427124,-2.61731 -1.542725,-5.816284c-2.997559,-4.867676 -1.87146,-4.583984 6.846252,2.019409c19.202515,14.546021 20.46875,15.083618 25.938965,10.501465c2.724121,-2.282227 3.862427,-5.547363 2.603516,-7.350708c-1.289673,-1.84668 0.29541,-1.538574 3.663818,0.727051c16.311157,10.971069 32.826294,13.130249 21.696289,2.827271c-5.025024,-4.651855 -4.857788,-5.014404 3.181885,-6.705078l8.388794,-1.776855l-9.063721,-6.139282c-11.852539,-8.116089 -5.514771,-8.136108 11.474731,0c7.385864,3.537354 15.235229,6.445313 17.356812,6.462402c6.227539,0.050293 4.430298,-4.071899 -3.085815,-7.108521c-6.248779,-2.524536 -5.775879,-2.831177 5.496338,-2.989014c6.888062,-0.096191 15.21936,-1.870483 18.513672,-3.957886c5.69873,-3.610962 5.625366,-3.795898 -3.181885,-3.877441c-13.215942,-0.122314 -60.218018,-7.290771 -70.005371,-10.663025c-11.992188,-4.131104 -14.264282,-10.452881 -2.410522,-6.704468c10.399414,3.288574 15.65979,0.570435 8.003296,-4.119629c-4.444336,-2.72229 -3.012085,-3.047119 8.774658,-2.261963c15.045776,1.002686 18.251587,-2.175049 7.039429,-6.946899c-6.007324,-2.556519 -4.988647,-2.880005 8.099487,-2.342651c17.660645,0.725098 22.638306,-4.138062 7.424561,-7.270142l-10.124512,-2.100098l10.02832,-0.969482c11.743286,-1.174072 12.779419,-3.833496 3.085449,-7.99707c-5.671021,-2.435913 -3.27002,-2.76709 13.114258,-1.615479c18.467163,1.297729 19.49646,1.091187 13.981567,-2.584961c-3.294189,-2.195923 -8.408447,-3.95813 -11.37854,-3.95813c-2.969604,0 -6.284668,-1.282837 -7.424561,-2.827148c-1.297852,-1.759644 0.639771,-2.661743 5.207031,-2.342529c12.892822,0.900269 21.213989,0.047607 21.213989,-2.261963c0,-1.237915 -9.781738,-3.055542 -21.696045,-4.03894c-11.914551,-0.983521 -21.000244,-2.728638 -20.152832,-3.877319c0.847046,-1.148926 9.73938,-3.629395 19.766968,-5.49292c18.915161,-3.515381 30.888672,-8.77771 27.096191,-11.955322c-1.938354,-1.623779 -19.108643,0.720093 -42.042114,5.81604c-7.046997,1.565918 -6.867188,1.079712 2.796509,-5.896729c15.901855,-11.47998 6.926636,-12.660889 -16.006714,-2.10022c-23.027954,10.603394 -36.212524,11.46936 -61.713074,4.119507c-28.935913,-8.339966 -75.865723,-28.297485 -79.358887,-33.765381c-4.325928,-6.771118 -1.86731,-6.57019 5.978638,0.484741c3.459961,3.11145 6.36377,4.707153 6.36377,3.554199c0,-1.153076 2.083008,-0.638794 4.62854,1.130737c3.823853,2.658813 4.62854,2.410889 4.62854,-1.453857c0,-3.894409 1.579346,-3.413086 9.642456,2.907959l9.642578,7.593262l-1.831787,-8.32019c-1.848022,-8.203247 -1.723877,-8.285034 6.556763,-5.331543c4.612671,1.645142 10.472168,4.336426 13.0177,5.977783c11.964478,7.714478 13.352905,7.543823 11.185669,-1.535034c-1.638062,-6.858276 -1.318115,-8.050537 1.63916,-5.573608c5.369141,4.498291 18.031799,3.988525 18.031799,-0.726929c0,-4.816895 4.982544,-5.059204 8.292725,-0.403931c1.356934,1.908691 6.325562,5.477295 10.992676,7.997192c6.998901,3.779053 8.485229,3.920654 8.485229,0.807861c0,-2.075806 -2.7771,-5.827881 -6.171143,-8.401123c-3.394165,-2.57312 -6.171265,-5.91272 -6.171265,-7.35083c0,-1.438232 0.781128,-1.849365 1.832153,-0.969238c1.050537,0.880005 4.101807,-0.205566 6.749634,-2.423706c3.339966,-2.797974 8.355103,-3.649292 16.392822,-2.746338c7.995117,0.898315 12.114014,0.211914 13.209961,-2.180908c1.209839,-2.640991 4.016846,-2.911377 11.764038,-1.050171c27.214233,6.538452 32.223267,-0.915039 5.978271,-8.88562c-17.74231,-5.388428 -19.98645,-8.110962 -3.37439,-4.119751c21.11145,5.072144 48.572632,1.232544 36.931274,-5.1698c-2.546387,-1.400146 -10.877319,-2.718018 -18.51416,-2.908081c-11.790039,-0.293335 -12.561768,-0.552246 -4.917847,-1.938477c4.951904,-0.897949 9.62207,-3.257019 10.414185,-5.250732c1.202637,-3.028198 -3.666016,-3.371155 -29.892212,-1.857849c-30.880249,1.781616 -31.374756,1.781433 -27.577759,-3.312012c5.651489,-7.580872 1.768555,-8.893555 -13.596069,-4.52356c-8.307129,2.362671 -18.969238,3.354797 -27.288818,2.503967c-17.837708,-1.823669 -76.85907,-18.391724 -83.794495,-23.506592c-7.248657,-5.345764 -6.840454,-9.051392 0.771362,-7.027954c3.460327,0.920288 6.171265,0.45166 6.171265,-1.049805c0,-2.803406 4.62207,-1.997253 20.056763,3.635132c5.091187,1.857727 16.266479,3.434204 24.878174,3.473328c8.61084,0.039185 16.942261,0.313721 18.513672,0.565552c7.222534,1.15686 7.984009,-0.609863 2.603516,-5.977722c-3.868896,-3.85968 -2.655762,-3.424805 3.567749,1.292603c10.673035,8.090637 13.692688,8.764343 13.692688,3.150208c0,-3.411926 0.992554,-3.390991 7.90686,0.403809c4.656128,2.555786 8.831421,3.358826 10.02832,1.938782c1.127686,-1.338013 6.20752,-3.942932 11.282104,-5.816101c8.857544,-3.269714 8.999023,-3.523376 3.27832,-7.027588c-6.986084,-4.279541 -5.208374,-4.63269 5.7854,-1.131104c5.974854,1.902954 8.003296,1.723328 8.003296,-0.807678c0,-2.043762 7.832031,-4.729126 20.056763,-6.866272c11.03125,-1.928467 20.056763,-4.563843 20.056763,-5.815979c0,-1.252075 1.305542,-1.517822 2.989014,-0.64624c1.683838,0.871765 5.526245,0.418091 8.485718,-0.969238c4.704102,-2.205444 4.280762,-2.792969 -3.181885,-4.362061c-6.435303,-1.353088 -8.085083,-2.937683 -6.749756,-6.462341c1.310059,-3.458679 -0.068481,-4.846863 -5.303711,-5.492859c-4.996582,-0.616577 -1.447754,-2.431152 12.149902,-6.058472c21.071289,-5.620789 26.277954,-10.708008 7.810425,-7.67395c-17.052002,2.801147 -59.398682,3.438416 -59.398682,0.888672c0,-1.21051 1.388428,-2.181213 3.085449,-2.181213c1.697144,0 3.085815,-1.175476 3.085815,-2.5849c0,-1.40918 -6.595703,-2.47998 -14.65686,-2.342651c-20.246338,0.345459 -52.612732,-5.323853 -54.577209,-9.612427c-1.105347,-2.413513 0.889404,-3.554565 6.074707,-3.554565c4.189758,0 7.617615,-1.127136 7.617615,-2.50415c0,-1.377014 2.082886,-1.868225 4.62854,-1.049988c2.545532,0.818481 4.628418,0.119751 4.628418,-1.534912c0,-1.982422 2.326172,-1.602112 6.846558,1.050049c3.771606,2.213318 10.36731,4.005615 14.656494,3.958252l7.810791,-0.08075l-7.135498,-5.008179l-7.039429,-4.927734l14.753296,-0.807556l14.849854,-0.888611l-10.800049,-4.362122l-10.799805,-4.362l9.449951,-0.08075c6.022217,-0.064148 12.17981,-2.442505 16.778076,-6.543091c3.986206,-3.554138 8.668823,-6.462341 10.510742,-6.462341c1.841553,0 5.18457,-2.375 7.328369,-5.250366c5.641602,-7.56781 -1.544556,-9.0849 -19.2854,-4.039307c-19.132202,5.441833 -23.096802,5.291016 -21.117065,-1.049683c1.949341,-6.244629 1.441284,-6.278931 -17.935303,-0.969421c-14.740479,4.038757 -16.273315,3.920898 -39.824158,-1.696777c-31.761108,-7.575562 -39.9021,-14.671997 -15.428345,-13.489807c2.520996,0.121704 5.555786,-1.047363 6.749756,-2.665833c1.518799,-2.058594 4.074951,-1.57428 8.38916,1.69635c4.835449,3.666077 8.877563,4.299438 18.706604,2.908142c14.022949,-1.984558 14.891479,-2.96698 7.135986,-8.320313c-5.54895,-3.829468 -3.500854,-3.709656 9.739014,0.727173c4.740479,1.588562 5.535645,1.112671 3.953125,-2.342651c-1.460571,-3.188416 -0.28479,-4.281006 4.435669,-4.281006c4.297119,0 5.865112,-1.226379 4.725342,-3.716003c-0.935181,-2.04071 -0.098022,-4.2948 1.928223,-5.008301c2.58606,-0.910583 2.234253,-2.390503 -1.35022,-4.846802c-4.684814,-3.2099 -4.494141,-3.961487 2.314453,-9.451111c11.115601,-8.962341 9.050903,-10.836975 -7.231934,-6.46228c-40.494568,10.8797 -55.341736,11.528625 -65.280823,2.665649c-5.632568,-5.022583 -5.96167,-6.389404 -2.218018,-7.59314c2.51416,-0.808167 8.735352,-0.174316 13.885498,1.454102c13.188354,4.170105 16.007446,0.012878 5.014404,-7.431763c-7.708252,-5.220154 -8.224609,-6.188965 -3.085815,-5.815979c10.793335,0.783569 16.970947,-0.244446 16.970947,-2.907898c0,-1.422119 -2.42981,-2.656555 -5.399414,-2.74646c-4.373169,-0.132874 -4.214722,-0.638 1.060303,-2.423584c3.58252,-1.212585 7.342896,-4.016235 8.389282,-6.30072c1.647095,-3.595947 1.032715,-3.759155 -4.917969,-0.968994c-10.762695,5.045776 -75.069336,4.275635 -88.615479,-1.050171c-9.469604,-3.723267 -9.971313,-4.258179 -3.568115,-4.442993c5.845459,-0.168884 7.040894,-1.245056 5.689209,-5.573853c-1.514282,-4.850708 -1.179932,-5.035217 3.471313,-1.696289c6.760986,4.85376 16.00708,7.563904 16.00708,4.685242c0,-1.243958 2.776733,-1.712952 6.171143,-0.969421c3.450195,0.755859 6.171265,0.078979 6.171265,-1.534729c0,-1.587646 3.471313,-2.827271 7.714355,-2.827271c10.255737,0 9.747681,-2.571106 -2.121582,-10.74353l-9.931885,-6.7854l16.489014,2.180908c17.005371,2.252014 23.194824,1.315247 19.960327,-3.069763c-3.160767,-4.283875 5.130127,-10.016235 14.463623,-10.016235c10.513672,0 11.967163,-4.268494 2.025024,-6.058594c-3.943848,-0.710022 -2.277832,-1.163452 3.857178,-0.969238c7.020508,0.222168 10.529907,-0.699768 10.02832,-2.746521c-0.424438,-1.731812 0.698364,-3.150513 2.603577,-3.150513c2.329956,0 2.21228,-1.31897 -0.482422,-4.03894c-2.554626,-2.578613 -6.891174,-3.611084 -11.956604,-2.746277c-4.369019,0.74585 -6.171265,0.772949 -4.050049,0c7.123047,-2.595215 3.96875,-6.734497 -3.857178,-5.089111c-6.257446,1.315674 -7.220215,0.806396 -5.592773,-2.746643c1.455688,-3.177551 0.821655,-3.754517 -2.217651,-2.180908c-2.279663,1.180237 -7.680664,2.362488 -12.053467,2.665588c-4.372681,0.303589 -11.378174,1.3573 -15.620728,2.342773l-7.714355,1.777344l8.485718,-6.058716c9.805176,-7.049744 11.228271,-11.180115 2.506958,-7.270081c-8.605225,3.858093 -14.922485,3.534363 -10.124878,-0.48468c6.926025,-5.801758 4.193481,-10.376892 -2.892456,-4.846619c-3.623779,2.828003 -10.896606,6.858521 -16.199585,8.966309c-18.851929,7.494019 -69.716431,-2.709106 -69.716431,-13.974731c0,-2.25238 -1.724243,-5.483093 -3.760986,-7.189209c-2.477173,-2.075195 -2.545654,-3.069763 -0.289063,-3.069763c1.854858,0 4.132568,1.742554 5.11084,3.877686c1.127686,2.462158 5.536011,3.750977 11.956909,3.553955c5.567505,-0.170349 13.248901,0.571167 17.067139,1.615906c5.703613,1.560242 6.942505,0.868652 6.942505,-3.554504l0,-5.331299l10.510742,5.169861c7.55542,3.734375 11.142456,4.411194 12.728394,2.261658c1.215454,-1.647217 0.313599,-4.09375 -2.025146,-5.412048c-3.663818,-2.065063 14.348267,-1.789551 26.613892,0.403931c1.697144,0.303406 6.238159,-0.328003 10.124878,-1.373169c6.518555,-1.753418 6.636963,-2.282166 2.121094,-6.462402c-4.529297,-4.19281 -4.281616,-4.610657 2.98938,-6.139069c8.914307,-1.874298 10.691895,-6.712982 2.506958,-6.86615c-3.401978,-0.064056 -1.975464,-1.392334 3.857178,-3.635101c5.091187,-1.957977 13.338867,-6.389526 18.321167,-9.854919l8.967651,-6.30069l-11.282104,-1.777466c-6.254883,-0.98291 -11.378174,-2.896729 -11.378174,-4.281158c0,-1.45166 -3.591553,-1.829102 -8.485718,-0.8078c-7.407471,1.54541 -8.064209,1.314667 -4.628418,-2.180939c5.957764,-6.061676 -2.91748,-7.911469 -12.053101,-2.50415c-4.276001,2.530823 -13.555664,4.412842 -22.467285,4.523621c-12.154785,0.151215 -13.886719,-0.359711 -8.582153,-2.34256c5.999878,-2.24295 6.593018,-4.350098 3.953613,-14.217224c-0.126343,-0.471222 -4.891479,1.56427 -10.607178,4.523438c-5.715698,2.959473 -15.088135,5.346985 -20.828125,5.331635c-19.238159,-0.051666 -52.35083,-10.789551 -73.380249,-23.82962c-8.097534,-5.020996 -6.381958,-6.059448 2.989014,-1.858032c4.857788,2.178162 5.998657,1.817413 6.075073,-1.938782c0.089355,-4.406036 0.240601,-4.451843 3.278442,-0.080566c1.749634,2.517975 4.433594,3.950012 5.978638,3.150391c1.544556,-0.800049 6.316162,0.472076 10.606812,2.827179c7.716919,4.235809 7.763916,4.175598 7.810425,-3.15036c0.026123,-4.073334 1.067505,-6.087982 2.314453,-4.523712c2.700317,3.388184 14.357666,8.804871 18.995605,8.804871c1.808594,0 3.495117,-2.617188 3.664551,-5.815887c0.291748,-5.520844 0.373413,-5.488007 2.410522,0.645935c1.179932,3.554321 2.795654,5.927338 3.567383,5.331543c0.772583,-0.59552 4.293823,0.200134 7.810791,1.7771c5.214111,2.337524 7.185913,1.956848 10.607178,-2.01947c2.307373,-2.682129 5.390137,-4.227264 6.846191,-3.473358c1.456055,0.753906 1.686768,-1.632294 0.578369,-5.33139c-1.928589,-6.437927 -1.666382,-6.62738 6.460693,-4.039063c10.031372,3.19516 13.150513,1.610474 7.714233,-3.87738c-3.248047,-3.278564 -2.924561,-3.877167 1.639282,-3.877167c5.193237,0 5.122192,-0.275208 0.096436,-4.927551c-2.9198,-2.702362 -3.991821,-5.563141 -2.410889,-6.381592c1.580444,-0.818542 5.297363,0.781769 8.292725,3.554138c4.702637,4.353302 7.724487,4.743347 19.670898,2.746552c0.63208,-0.105499 -0.327637,-1.727142 -2.217651,-3.635193c-4.015625,-4.052887 -1.637207,-6.86615 5.881836,-6.86615c2.923096,0 8.625244,-2.292786 12.631836,-5.08902l7.328491,-5.08905l-9.256714,-0.484772c-5.091553,-0.268372 -12.65979,-0.233459 -16.77832,0.081085c-6.518555,0.497498 -7.015259,0.022491 -3.471313,-3.554199c6.746948,-6.81076 1.996704,-6.790619 -9.931885,0c-12.935303,7.363037 -20.72522,8.645844 -14.560425,2.423187c3.260498,-3.291473 3.077759,-3.70401 -1.157227,-2.34256c-5.887939,1.8927 -6.745972,-1.618744 -1.446289,-6.058563c7.903076,-6.620636 -0.480103,-5.627136 -10.221313,1.211853c-19.179077,13.464478 -21.534058,13.892273 -43.198975,8.400909c-22.714722,-5.757233 -37.946289,-12.947906 -42.524048,-20.113831c-2.802124,-4.385956 -2.163574,-5.007019 4.531982,-4.685242c4.224121,0.203125 8.330933,2.176727 9.160645,4.362183c0.829224,2.185394 4.435181,4.13678 8.003296,4.36203c5.206543,0.328522 6.119751,-0.701721 4.724976,-5.169891c-1.547607,-4.95578 -0.895386,-4.777435 5.496338,1.454102c3.949463,3.850372 10.245117,7.027771 14.078125,7.027771c6.049805,0 6.765503,-0.983582 5.206909,-7.512604c-2.335571,-9.783112 4.906128,-12.484467 12.438965,-4.604431c5.146729,5.383759 22.502075,9.165131 22.563721,4.927673c0.015869,-1.050385 -4.497192,-5.01413 -10.02832,-8.885742c-7.669312,-5.368286 -8.724121,-7.055603 -4.531738,-7.108459c3.023071,-0.038269 6.258667,1.591583 7.231934,3.715759c0.972656,2.12439 2.936768,3.31073 4.339111,2.584778c1.4021,-0.725586 3.369629,-0.152283 4.435669,1.29248c1.06604,1.445068 5.657471,2.665802 10.124878,2.665802c7.774414,0 7.854614,-0.188995 2.12146,-3.71579c-5.777466,-3.553436 -5.678711,-3.78302 2.699585,-6.462341c4.777588,-1.527771 10.331787,-2.776703 12.342407,-2.827209c2.011108,-0.050385 0.192993,-1.745117 -4.049683,-3.715851c-7.521729,-3.493744 -7.443481,-3.57019 4.242676,-2.665619c7.570923,0.586029 13.605957,-0.412354 16.392456,-2.746552c6.782959,-5.682404 1.974731,-8.885712 -13.306641,-8.885712c-8.536011,0 -13.137695,-1.065338 -11.957031,-2.665741c3.887085,-5.26889 -7.504761,-5.358826 -20.345825,-0.161499c-15.738037,6.370087 -18.658936,6.693085 -16.296021,1.535004c1.115601,-2.435547 -0.031738,-3.877441 -3.085815,-3.877441c-3.053589,0 -4.201416,-1.441895 -3.085815,-3.877441c2.077271,-4.534607 1.004761,-4.691681 -9.160156,-1.453979c-6.611938,2.105804 -7.340576,1.778198 -5.978271,-2.584839c1.620972,-5.193787 -3.558716,-7.010498 -6.942993,-2.423462c-1.063843,1.442078 -7.598145,5.102478 -14.560425,8.07782c-11.19165,4.782898 -14.08374,5.019592 -25.070801,2.261902c-10.244385,-2.57132 -11.551025,-3.54895 -7.231934,-5.573608c2.88147,-1.351105 5.303345,-4.212189 5.303345,-6.381653c0,-3.059753 -3.162598,-3.788513 -13.981934,-3.231079c-10.525513,0.542114 -15.367798,-0.553375 -19.863525,-4.362183c-6.771545,-5.736938 -13.31958,-26.231018 -9.064087,-28.434174c2.631104,-1.362183 4.104187,4.145447 2.989319,11.228271c-0.285583,1.813965 2.430237,6.77951 6.074768,11.066803c5.288269,6.221802 7.538452,7.167297 10.992676,4.765961c2.379883,-1.654694 4.431396,-6.038544 4.628174,-9.774384c0.283325,-5.370575 0.739502,-5.703461 1.928589,-1.615417c2.335938,8.03186 10.344238,14.217041 18.417603,14.217041c6.304688,0 6.888428,-0.715851 4.146118,-5.008362c-4.030762,-6.309204 -4.057251,-8.67453 -0.096069,-6.623749c1.697021,0.878571 3.085449,0.374786 3.085449,-1.130829c0,-1.505554 1.388672,-2.746674 3.085815,-2.746674c1.697021,0 3.085815,1.628937 3.085815,3.635162c0,4.635132 18.02832,17.538818 21.791992,15.590393c1.553345,-0.804382 2.892822,-3.70282 2.892822,-6.462524c0,-2.759521 1.384644,-5.00824 3.182251,-5.00824c1.796997,0 2.445801,-1.45401 1.349854,-3.23114c-1.096313,-1.777222 0.578369,-0.597168 3.76062,2.665833c3.182373,3.262695 6.848022,5.087219 8.099854,4.03894c1.251465,-1.048645 5.289429,-2.306213 9.064087,-2.746643c8.356689,-0.974762 20.827759,-6.127136 20.827759,-8.643311c0,-1.00885 -4.129517,-3.262451 -9.160156,-5.008026c-5.031372,-1.746002 -8.849609,-4.513611 -8.485718,-6.139374c0.368896,-1.647583 -3.553711,-3.087036 -8.774658,-3.231171c-10.794434,-0.298004 -26.504883,-6.438995 -20.635254,-8.07785c2.116699,-0.591187 3.856812,-2.751953 3.856812,-4.76593c0,-4.099274 -15.428589,-5.146118 -20.249268,-1.37323c-4.664063,3.650513 -16.778076,6.038879 -16.778076,3.31189c0,-1.363403 3.514038,-3.196045 7.906494,-4.119751c6.5802,-1.383545 7.320923,-2.385986 4.243042,-5.492859c-3.046143,-3.074463 -2.589478,-3.729675 2.12146,-3.796661c6.873413,-0.097687 18.481934,-6.973602 15.717285,-9.28952c-1.064941,-0.892303 -8.285889,-2.178925 -16.006592,-2.907898c-15.441895,-1.458176 -15.365112,-1.416763 -10.799805,-8.56279c2.960205,-4.633698 3.707764,-4.703583 10.510376,-0.969086c6.869507,3.770599 7.452881,3.64209 9.353149,-1.373444c1.117065,-2.947418 3.343018,-4.692719 4.918213,-3.877289c1.574463,0.815338 2.892456,0.293945 2.892456,-1.2117c0,-1.505554 2.777222,-2.746674 6.171265,-2.746674c3.394165,0 6.171631,-1.654297 6.171631,-3.634888c0,-3.952484 -6.520752,-6.70462 -15.717651,-6.70462c-7.005371,0 -7.94812,-4.745148 -1.349854,-6.86618c2.535767,-0.815247 3.962769,-2.33432 3.182007,-3.392792c-0.78125,-1.058289 2.043945,-3.437622 6.267578,-5.331207c10.399902,-4.66275 7.827148,-8.966675 -5.400146,-8.966675l-10.895874,0l7.810425,-8.562469c6.089478,-6.684113 6.901367,-9.190735 3.953613,-11.632019c-2.937866,-2.432739 -5.928711,-1.105865 -13.885498,6.13916c-9.434082,8.590271 -10.414673,8.920837 -13.692261,4.52356c-1.94519,-2.60907 -4.917969,-4.685181 -6.557129,-4.685181c-3.668335,0 -13.415649,14.46405 -15.524658,23.102844c-1.559082,6.385437 -29.959595,26.768311 -34.231384,24.556671c-1.217346,-0.629974 -1.816956,-7.530853 -1.446594,-15.347961c0.370728,-7.817108 -0.545898,-14.217224 -2.024719,-14.217224c-1.479126,0 -2.262207,-4.294464 -1.735596,-9.531769c0.79895,-7.94574 2.353027,-9.871399 9.546021,-11.470459c7.456299,-1.657715 8.405884,-1.289154 6.84613,2.827148c-2.814575,7.42926 4.711731,9.319824 10.703613,2.66568c3.167603,-3.518097 6.141724,-4.839233 7.328491,-3.231262c2.102539,2.850494 14.367432,1.343933 14.367432,-1.776978c0,-2.402496 -15.360474,-14.440582 -18.031616,-14.136261c-1.136475,0.129395 -4.474243,-0.322968 -7.424988,-0.969299c-8.70697,-1.907471 -3.043823,-5.54126 6.171204,-3.958252c15.467285,2.657196 29.409546,2.160675 30.760132,-1.131012c0.728882,-1.777069 -0.702881,-3.230988 -3.181885,-3.230988c-2.479858,0 -6.195923,-1.76062 -8.292847,-3.877502c-2.097656,-2.116882 -5.05249,-3.202393 -6.557007,-2.423309c-1.504883,0.779114 -2.704834,0.504089 -2.699951,-0.646301c0.004517,-1.150146 4.175293,-4.426514 9.256958,-7.27002c9.342896,-5.227936 11.908936,-9.04715 6.074829,-9.04715c-5.619629,0 -25.828491,7.829407 -28.542114,11.066711c-1.605835,1.915802 -1.916077,0.921356 -0.771301,-2.50415c1.028259,-3.079193 0.539001,-6.280182 -1.060791,-7.108673c-3.358521,-1.738678 -15.814087,14.888611 -15.814087,21.083282c0,2.288177 -0.920044,3.429871 -2.024719,2.504181c-1.105347,-0.925598 -3.952087,0.280609 -6.267639,2.746552c-3.669189,3.90683 -3.978638,2.849762 -2.603882,-8.158722c1.277161,-10.227936 4.175293,-15.218872 15.428284,-26.253052c7.644287,-7.495758 13.981934,-15.303406 13.981934,-17.36734c0,-6.211792 -15.505005,-2.127472 -18.706909,4.927429c-5.094604,11.225189 -10.70105,7.333405 -9.546082,-6.623871c0.842468,-10.184753 -0.253052,-14.031799 -5.399841,-18.659943l-6.460632,-5.735229l0,0.000046zm-20.924255,90.714493c1.409973,0.070557 4.763245,2.313965 8.581787,5.896851c6.344482,5.953156 9.256653,11.324158 9.256653,17.205902c0,4.719879 -0.586731,8.643311 -1.253296,8.643311c-1.659241,0 -5.635925,-8.009766 -7.039429,-14.136261c-0.634033,-2.768951 -3.184204,-6.889893 -5.688904,-9.208771c-2.505493,-2.318909 -4.532043,-5.833496 -4.532043,-7.7547c0,-0.480347 0.205017,-0.6698 0.675232,-0.646332l0,0zm-7.521362,37.966003c5.87085,0.360718 20.111267,8.591888 22.37085,13.570892c4.01947,8.856781 1.735229,10.508087 -5.207336,3.715881c-3.044189,-2.97876 -7.244446,-5.41217 -9.353088,-5.41217c-3.573059,0 -11.99823,-9.996246 -9.739014,-11.551422c0.436218,-0.300385 1.089905,-0.374725 1.928589,-0.323181zm84.276367,21.083282c0.741943,0.00351 1.643799,0.112946 2.603882,0.322998c5.089355,1.114929 3.89502,2.650269 -8.003662,10.259033c-7.710205,4.930206 -16.735718,9.166916 -19.960327,9.370438c-3.224304,0.203339 -5.7854,1.223236 -5.7854,2.342529c0,1.119141 -1.560059,2.10022 -3.375183,2.10022c-1.815063,0 -2.856567,-2.617798 -2.314087,-5.816162c0.853455,-5.033218 2.61676,-5.738266 12.632263,-5.008347c8.903687,0.64917 11.570679,-0.09494 11.570679,-3.231049c0,-2.241638 2.083008,-4.03894 4.62854,-4.03894c2.545654,0 4.62854,-1.63559 4.62854,-3.63501c0,-1.745575 1.14856,-2.676575 3.374756,-2.66571zm-35.773987,36.99675l7.231995,2.988678c3.976318,1.622864 10.57196,2.232056 14.65686,1.373291c4.205933,-0.88443 7.424561,-0.441681 7.424561,1.050079c0,1.448822 -1.334229,2.66568 -2.892456,2.66568c-1.558594,0 -4.827515,0.60022 -7.232056,1.37326c-2.404846,0.772858 -7.665833,-1.053192 -11.763977,-4.03894l-7.424927,-5.412048zm33.845398,6.381378c0.700317,0.086334 1.7323,0.68811 3.182373,1.69635c3.448975,2.397949 4.628418,2.437439 4.628418,0.16156c0,-1.679565 1.51709,-2.223358 3.471313,-1.211792c2.462036,1.274658 1.818115,2.918335 -2.121094,5.331421c-7.947754,4.868439 -10.607178,4.340332 -10.607178,-2.019592c0,-2.864685 0.279175,-4.10199 1.446167,-3.957947zm46.477783,9.451172c2.645874,0 4.037964,1.163147 2.988892,2.585022c-2.467285,3.344452 -7.713867,3.344452 -7.713867,0c0,-1.421875 2.079102,-2.585022 4.724976,-2.585022zm-72.608887,41.358704c1.697083,0 3.085449,5.815918 3.085449,12.924408c0,13.105469 -0.465698,14.231171 -4.146545,11.147461c-3.285583,-2.752533 -2.342468,-24.071869 1.061096,-24.071869zm-23.528076,34.492249c1.106567,-0.155609 1.928223,0.405823 1.928223,1.534882c0,1.505707 -1.388367,2.746552 -3.085388,2.746552c-3.954041,0 -3.954041,-1.830292 0,-3.877319c0.424072,-0.219788 0.787964,-0.351959 1.157166,-0.404114zm24.877502,5.49292c0.178162,-0.013123 0.464172,0.208771 0.675232,0.64624c0.845154,1.750275 0.878845,5.239899 0.096497,7.754883c-0.782349,2.515137 -1.479919,1.114868 -1.542725,-3.150238c-0.047302,-3.198883 0.237549,-5.210449 0.770996,-5.250885zm-38.377136,1.373352c1.697021,0 3.085388,0.503906 3.085388,1.130859c0,0.627014 -1.388367,1.867737 -3.085388,2.746674c-1.697449,0.878479 -3.085815,0.374695 -3.085815,-1.131073c0,-1.505615 1.388733,-2.74646 3.085815,-2.74646zm-15.428284,5.169861c1.697083,0 3.085449,0.504089 3.085449,1.130859c0,0.627136 -1.388367,1.86792 -3.085449,2.74646c-1.697449,0.878662 -3.085815,0.374878 -3.085815,-1.130859c0,-1.505554 1.388794,-2.74646 3.085815,-2.74646zm-64.220398,0.080597c2.110168,0.173981 4.729553,1.34079 6.750061,3.473663c6.255188,6.603516 16.624817,7.480042 22.370789,1.857941c5.084412,-4.974304 12.336426,-5.03891 8.67865,-0.08078c-0.97644,1.323517 0.346863,2.423462 2.892822,2.423462c2.545593,0 5.508118,-1.163452 6.556763,-2.585083c2.48999,-3.375122 7.714294,-3.395874 7.714294,0c0,1.45697 -3.818542,3.911255 -8.485657,5.412231c-4.667114,1.500946 -16.422424,3.308044 -26.035095,4.039001c-15.311707,1.164398 -17.892517,0.717163 -20.828125,-3.877441c-1.842712,-2.88446 -3.27832,-6.481781 -3.27832,-7.997131c0,-1.966614 1.554443,-2.839508 3.663818,-2.665863zm283.108154,136.920197c1.797241,0 3.27832,1.163269 3.27832,2.584778c0,3.312378 -2.184692,3.312378 -4.62854,0c-1.049072,-1.421509 -0.447144,-2.584778 1.35022,-2.584778l0,0zm-257.940552,31.018799c1.888855,0 -1.767029,2.326477 -8.099792,5.169983c-11.206787,5.031677 -17.64624,6.433289 -17.64624,3.877319c0,-1.604492 21.189392,-9.047302 25.746033,-9.047302zm266.426147,110.424438c3.399048,-0.016785 6.780273,0.283325 8.87085,0.96936c4.216064,1.383362 2.141846,1.971802 -7.13562,2.100464c-7.21228,0.099854 -13.11377,-0.262634 -13.11377,-0.807861c0,-1.37146 5.712402,-2.233582 11.37854,-2.261963zm69.040833,13.974792c1.072021,-0.036865 2.35791,0.111206 3.47168,0.484802c2.461548,0.825073 1.665649,1.410706 -1.928589,1.534607c-3.252686,0.112061 -5.074951,-0.514221 -4.050171,-1.373169c0.513062,-0.429382 1.435303,-0.609314 2.50708,-0.64624zm0.771729,64.380615c0.138428,-0.033447 0.366211,0 0.578369,0c1.697021,0 5.168335,1.125854 7.713989,2.50415c2.545898,1.378174 3.240112,2.504272 1.543091,2.504272c-1.69751,0 -5.168335,-1.125916 -7.714355,-2.504272c-2.227417,-1.205994 -3.090698,-2.26947 -2.121094,-2.50415zm-537.48053,104.446655c1.456146,-0.181763 1.87146,0.355042 1.060822,1.454285c-1.036957,1.405334 -3.127808,2.584839 -4.724976,2.584839c-4.438263,0 -3.513336,-1.916565 1.832062,-3.635071c0.686646,-0.220764 1.346741,-0.343201 1.832092,-0.404053zm49.852173,22.214417l7.039429,6.300842l6.942566,6.300537l5.303406,-6.785278c4.825256,-6.169434 5.493286,-6.291199 8.292725,-2.10022c2.297852,3.439575 3.705505,3.719971 5.496338,1.292358c1.698242,-2.301575 2.950745,-1.657776 4.435608,2.261963c2.109009,5.565796 7.907227,7.767822 7.907227,2.988647c0,-1.421875 3.818237,-2.593628 8.485291,-2.584839l8.485718,0l-9.25708,4.119751c-5.966919,2.635254 -13.954346,3.598633 -22.370789,2.827271c-7.182068,-0.658447 -12.296692,-0.113403 -11.37854,1.130737c2.4328,3.297852 -2.171082,2.696533 -11.667603,-1.453857c-4.846802,-2.118652 -8.675537,-2.591919 -9.257019,-1.131226c-0.548523,1.37915 -3.527283,1.700928 -6.556702,0.727173c-5.119934,-1.645752 -4.985291,-2.186768 1.349792,-7.835693l6.749634,-6.058167zm71.741394,2.827271c0.649536,-0.003601 1.275635,0.006104 1.832092,0.161316c2.311096,0.645569 0.893921,1.832642 -3.278687,2.746704c-5.132446,1.124268 -6.339233,0.787231 -4.049744,-1.130859c1.344849,-1.126709 3.548462,-1.766418 5.496338,-1.777161zm-31.33844,106.546936c1.10614,-0.155762 1.928528,0.405762 1.928528,1.53479c0,1.505615 -1.388733,2.74646 -3.085754,2.74646c-3.953674,0 -3.953674,-1.8302 0,-3.877319c0.424438,-0.219604 0.788391,-0.351807 1.157227,-0.403931z" fill="#000000" id="svg_14"/>
  </g>
 </g>
</svg>