<svg height="633" version="1.1" width="1049" xmlns="http://www.w3.org/2000/svg">
<g transform="translate(10 20)">
<path d="m 135.58488,358.02208 -0.24846,65.59232 1.24227,0.74536 2.36034,0.12423 1.11804,-0.86959 1.98765,0 0.12423,2.2361 5.3418,5.21757 0.37268,1.98764 2.60878,-1.49073 0.49692,-0.12423 0.24846,-2.36033 1.11804,-1.24228 0.8696,-0.12423 1.49074,-1.11805 2.36032,1.61496 0.49692,2.23611 1.49073,0.86959 0.8696,1.86342 2.98147,1.36651 2.60878,4.59643 2.11187,2.98146 1.73919,2.11188 1.11805,2.85724 3.85107,1.36651 3.97529,1.61496 0.74537,3.35415 0.37268,2.36033 -0.74536,2.60879 -1.36651,1.73919 -1.24228,-0.62114 -1.11805,-2.36033 -2.11188,-1.11805 -1.3665,-0.8696 -0.62114,0.62114 1.11805,2.11188 0.12423,2.85724 -0.8696,0.37268 -1.49073,-1.49073 -1.61496,-0.99383 0.37268,1.24228 0.99382,1.36651 -0.62114,0.62114 c 0,0 -0.62114,-0.24846 -0.99382,-0.74537 -0.37269,-0.49691 -1.61496,-2.60878 -1.61496,-2.60878 l -0.74537,-1.73919 c 0,0 -0.24846,0.99382 -0.74537,0.74536 -0.49691,-0.24845 -0.99382,-1.11805 -0.99382,-1.11805 l 1.36651,-1.49073 -1.11806,-1.11805 0,-3.85107 -0.62113,0 -0.62114,2.60878 -0.8696,0.37269 -0.74536,-2.85724 -0.49692,-2.85724 -0.62114,-0.37269 0.24846,4.34798 0,0.8696 -1.11805,-0.99382 -2.73301,-4.59644 -1.61497,-0.37268 -0.49691,-2.85724 -1.24228,-2.2361 -1.24228,-0.8696 0,-1.73919 1.61497,-0.99382 -0.37269,-0.24845 -1.98764,0.49691 -2.60879,-1.86342 -1.98764,-2.23611 -3.72684,-1.98764 -3.1057,-1.98765 0.99383,-2.48455 0,-1.24228 -1.36651,1.24228 -2.2361,0.86959 -2.85724,-0.86959 -4.34798,-1.86342 -4.22374,0 -0.49691,0.37268 -4.96912,-2.98147 -1.61496,-0.24845 -2.11187,-4.47221 -2.73302,0.24846 -2.73302,1.11805 0.37269,3.47838 0.86959,-2.2361 0.74538,0.24845 -1.11806,3.35416 2.48456,-2.11187 0.49691,1.24227 -2.98147,3.35415 -0.99382,-0.24845 -0.37269,-1.49074 -0.99381,-0.62114 -0.99383,0.8696 -2.11187,-1.3665 -2.36034,1.61496 -1.3665,1.61496 -2.60879,1.61496 -3.602603,-0.12423 -0.372682,-1.61496 2.857236,-0.49691 0,-0.99382 -1.73919,-0.49692 0.745372,-1.86342 1.73919,-2.98146 0,-1.36651 0.124227,-0.62114 3.35415,-1.73919 0.74537,0.99382 2.11188,0 -0.99383,-1.98764 -2.85724,-0.24845 -3.851066,2.11187 -1.863417,2.60878 -1.366508,1.98765 -0.869591,1.73919 -3.229926,1.11805 -2.360334,1.98764 -0.248455,1.24228 1.73919,0.74537 0.621145,1.61496 -2.11188,2.48456 -4.969107,3.22993 -5.962945,3.22992 -1.614962,0.86959 -4.099518,0.8696 -4.099525,1.73919 1.366508,0.99382 -1.118053,1.11805 -0.372682,0.86959 -2.111872,-0.74536 -2.484554,0.12423 -0.621144,1.73919 -0.745364,0 0.248455,-1.86342 -2.733017,0.99383 -2.236099,0.74536 -2.608785,-0.99383 -2.236101,1.49074 -2.484557,0 -1.614963,0.99383 -1.242279,0.62113 -1.614962,-0.24845 -1.987646,-0.86959 -1.73919,0.49691 -0.745367,0.74536 -1.242279,-0.86959 0,-1.49074 2.36033,-0.99382 4.844886,0.49691 3.354153,-1.24228 1.614962,-1.61496 2.236102,-0.49691 1.366506,-0.62114 2.111874,0.12422 1.242279,0.99383 0.745364,-0.24845 1.73919,-2.11188 2.360334,-0.74537 2.608781,-0.49691 0.993826,-0.24845 0.49691,0.37268 0.621144,0 0.993818,-2.85724 3.105698,-1.11805 1.490736,-2.85724 1.739191,-3.47838 1.242281,-1.11806 0.248455,-1.98764 -1.242281,0.99383 -2.608791,0.4969 -0.496909,-1.86341 -0.993818,-0.24846 -0.745372,0.74537 -0.124227,2.2361 -1.118054,-0.12423 -1.118045,-4.4722 -0.993826,0.99382 -0.869591,-0.37268 -0.248455,-1.49074 -3.105698,0.12423 -1.614963,0.8696 -1.987645,-0.24846 1.118046,-1.11805 0.372682,-1.98765 -0.496909,-1.49073 1.118053,-0.74536 0.993819,-0.12423 -0.49691,-1.36651 0,-3.35415 -0.745363,-0.74537 -0.621145,1.11805 -4.720656,0 -1.11805,-0.99383 -0.496912,-2.98146 -1.614962,-2.73302 0,-0.74536 1.614962,-0.62114 0.124228,-1.61497 0.869595,-0.86959 -0.621139,-0.37268 -0.993823,0.37268 -0.869595,-2.11187 0.745367,-3.85107 3.47838,-2.48455 1.987643,-1.24228 1.490735,-2.85724 2.11188,-0.99383 1.987644,0.8696 0.248455,1.86342 1.863417,-0.24846 2.484554,-1.86342 1.242281,0.49692 0.745364,0.49691 1.242281,0 1.739191,-0.99383 0.621145,-3.35415 c 0,0 0.248454,-2.2361 0.745363,-2.60878 0.49691,-0.37269 0.745364,-0.74537 0.745364,-0.74537 l -0.869591,-1.49073 -1.987646,0.62113 -2.484562,0.62114 -1.490735,-0.37268 -2.733009,-1.36651 -3.851062,-0.12423 -2.733016,-2.85723 0.372682,-2.98147 0.496917,-1.86342 -1.614963,-1.36651 -1.490737,-2.85724 0.372684,-0.62114 5.21757,-0.37268 1.614963,0 0.745363,0.74536 0.496918,0 -0.124228,-1.24228 2.981463,-0.49691 1.987645,0.24846 1.118053,0.8696 -1.118053,1.61496 -0.372682,1.11804 2.11188,1.24229 3.851063,1.3665 1.366508,-0.74536 -1.73919,-3.35415 -0.745371,-2.48456 0.745371,-0.62114 -2.608789,-1.49074 -0.372683,-0.8696 0.372683,-1.24227 -0.621138,-2.98147 -2.236107,-3.60261 -1.863417,-3.22992 2.236107,-1.49074 2.484555,0 1.366508,0.49691 3.229926,-0.12423 2.857238,-2.733 0.869599,-2.36034 2.857244,-1.86342 1.242272,0.74538 2.111872,-0.49692 2.857244,-1.61496 0.869599,-0.12423 0.745364,0.62114 3.47838,-0.12422 2.111872,-2.36034 0.869599,0 2.733007,1.86342 1.49074,1.61496 -0.37269,0.8696 0.49691,0.86959 1.24228,-1.24227 2.98148,0.24845 0.24845,2.85724 1.49074,1.11805 5.46602,0.49691 4.84489,3.22993 1.11804,-0.74537 3.9753,1.98765 1.61496,-0.49691 1.49074,-0.62115 3.72683,1.49074 3.35416,2.2361 z m -88.450249,22.23679 1.614961,4.09952 -0.124228,0.74537 -2.236101,-0.24846 -1.366507,-3.1057 -1.366506,-1.11804 -1.863418,0 -0.124228,-1.98766 1.366507,-1.86341 0.869595,1.86341 1.11805,1.11806 2.111875,0.49691 z m -1.987647,25.71517 2.857242,0.62114 2.85724,0.74536 0.62114,0.74538 -1.242279,2.85723 -2.36033,-0.12423 -2.608785,-2.733 -0.124228,-2.11188 z m -15.901167,-10.80783 0.869596,1.98765 0.869595,1.24228 -0.869595,0.62114 -1.614963,-2.36033 0,-1.49074 0.745367,0 z m -10.559368,56.151 2.608785,-1.73919 2.608785,-0.74537 1.987646,0.24845 0.372684,1.24229 1.490734,0.37268 1.490734,-1.49073 -0.248455,-1.24228 2.111873,-0.49691 2.236102,1.98764 -0.869595,1.3665 -3.354152,0.8696 -2.111874,-0.37268 -2.857241,-0.8696 -3.354152,1.11806 -1.242279,0.24845 -0.869595,-0.49691 z m 37.641043,-3.47838 1.242279,1.49074 1.61496,-1.24228 -1.118049,-0.99383 -1.73919,0.74537 z m 2.236102,2.36033 0.869592,-1.73919 1.614962,0.24845 -0.621136,1.49074 -1.863418,0 z m 18.137266,-1.49074 1.118054,1.36651 0.745371,-0.86959 -0.621144,-1.49074 -1.242281,0.99382 z m 6.708308,-9.56554 0.869599,4.4722 2.236099,0.62114 3.851062,-2.2361 3.354153,-1.98765 -1.242273,-1.86342 0.372682,-1.86341 -1.614963,0.99382 -2.236099,-0.62114 1.242273,-0.86959 1.490735,0.62113 2.981471,-1.3665 0.372682,-1.11805 -1.863417,-0.62114 0.621136,-1.49074 -2.111872,1.49074 -3.602607,2.73301 -3.726835,2.2361 -0.993826,0.8696 z m 32.547702,-15.28003 1.86342,-1.11805 -0.74537,-1.36651 -1.36651,0.74537 0.24846,1.73919 z" id="AK" style="stroke:#ffffff;stroke-width:0.5;stroke-miterlimit:4;stroke-opacity:1;stroke-dasharray:none;fill:#a0a0a0"/>
<path d="m 494.84948,368.08547 -1.2415,-11.67769 -2.11188,-14.41039 0.12423,-10.80779 0.62114,-23.85167 -0.12423,-12.79543 0.12686,-4.9327 5.96029,-0.28486 21.36713,-1.98763 7.81567,-0.68326 -0.11357,1.67708 0.12423,1.61496 0.49691,2.60877 2.60878,6.08715 1.86341,7.57788 1.11804,4.72064 1.24227,3.72682 1.11806,5.34178 1.61495,4.84487 1.98764,2.60879 0.37268,2.60877 1.49074,0.62113 0.12422,1.61497 -1.3665,3.72682 -0.37269,2.48455 -0.12422,1.49073 1.24228,3.35414 0.24845,4.0995 -0.62114,1.86342 0.49692,0.62114 1.11804,0.62113 0.62114,2.73301 -4.84488,0 -5.21755,0.49691 -19.62794,2.23609 -7.82633,0.99382 -0.24845,2.36033 1.3665,1.3665 1.98763,1.49072 0.44636,6.09795 -5.04355,1.97714 -2.11187,-0.24846 2.11187,-1.49072 0,-0.74537 -2.36032,-4.59641 -1.73919,-0.49691 -1.11804,3.35414 -0.99382,2.11186 -0.49691,-0.12422 -2.11186,0 z" id="AL" style="stroke:#ffffff;stroke-width:0.5;stroke-miterlimit:4;stroke-opacity:1;stroke-dasharray:none;fill:#357eb1"/>
<path d="m 469.01093,274.47535 -3.74122,0.72055 -4.74347,-0.35137 0.52705,-2.28389 2.45958,-2.10821 0.35136,-1.75684 -1.40547,-2.2839 -8.43283,0.35137 -15.98726,0.70274 -17.91977,0.52705 -17.91978,0.35136 1.22979,5.27053 -10e-6,6.32464 1.05412,8.43291 0.17568,29.07563 1.75684,1.49331 2.28389,-1.0541 2.10821,0.87842 0.50509,8.63048 17.06332,-0.0219 14.75746,-0.70274 8.30107,0.1098 1.14194,-2.04233 -0.30744,-3.33799 -1.0541,-2.2839 1.0541,-1.0541 -1.0541,-1.58116 0.35137,-1.40547 0.70273,-4.74347 2.28389,-2.10821 -0.52704,-1.58116 2.81094,-4.04073 2.10821,-0.70274 0,-1.93252 -0.52705,-1.05411 2.10821,-4.04073 2.1082,-0.87842 -0.22801,-2.80834 1.88386,-0.86698 0.74536,-3.6026 -1.11804,-2.73301 3.10569,-1.73918 0.24845,-1.98764 1.03643,-3.3666 0.70275,-2.41439 z" id="AR" style="stroke:#ffffff;stroke-width:0.5;stroke-miterlimit:4;stroke-opacity:1;stroke-dasharray:none;fill:#a0a0a0"/>
<path d="m 119.96259,307.17049 -2.01871,1.65856 -0.24846,1.11805 0.37269,0.74536 14.53459,8.199 9.31704,5.83868 11.30469,6.58405 12.91964,7.70209 9.44127,1.86341 20.54264,2.69517 1.57484,-10.2275 2.88372,-20.68809 5.35212,-40.88293 3.27147,-23.67213 -19.76446,-2.95025 -20.9064,-3.51368 -25.68848,-4.8548 -2.24533,13.9026 -0.35136,0.35136 -1.31763,2.02037 -1.93252,-0.0878 -0.96627,-2.10821 -2.1082,-0.26353 -0.70274,-0.87841 -0.70274,0 -0.70274,0.43921 -1.49331,0.79058 -0.0878,5.35835 -0.17569,1.31763 -0.4392,9.66263 -1.14195,1.66899 -0.43921,2.54742 2.10821,3.77721 0.96626,4.47994 0.6149,0.79058 0.79057,0.43921 -0.0878,1.75684 -1.22978,1.0541 -2.63527,1.31763 -1.49331,1.49332 -1.14195,2.81094 -0.43921,3.77721 -2.19605,2.10821 -1.58116,0.52705 -0.0878,4.47995 -0.35138,1.31762 0.35138,0.6149 2.81094,0.4392 -0.43922,2.10822 -1.14194,1.66899 -2.89879,0.70274 z" id="AZ" style="stroke:#ffffff;stroke-width:0.5;stroke-miterlimit:4;stroke-opacity:1;stroke-dasharray:none;fill:#a0a0a0"/>
<path d="m 119.68306,307.08987 3.17832,-0.62212 1.14194,-1.66899 0.43922,-2.10822 -2.81094,-0.4392 -0.35138,-0.6149 0.35138,-1.31762 0.0878,-4.47995 1.58116,-0.52705 2.19605,-2.10821 0.43921,-3.77721 1.14195,-2.81094 1.49331,-1.49332 2.63527,-1.31763 1.22978,-1.0541 0.0878,-1.75684 -0.79057,-0.43921 -0.6149,-0.79058 -0.96626,-4.47994 -2.10821,-3.77721 0.44454,-2.51103 -1.93786,-2.49596 -11.15593,-17.48056 -14.93314,-22.31187 -17.480559,-26.00124 -9.514511,-14.27929 1.257357,-5.04595 5.358368,-19.94014 6.236783,-24.15656 -10.365361,-2.81094 -10.36536,-2.63527 -9.66262,-3.16231 -5.797573,-1.58116 -8.784201,-2.28389 -5.418168,-1.85326 -1.214236,3.63041 -0.124227,5.71446 -3.975274,9.06859 -2.360318,1.98764 -0.248455,0.86959 -1.3665,0.62114 -1.118045,3.22991 -0.621137,2.48454 2.111864,3.22991 1.242273,3.22991 0.869591,2.733 -0.248455,4.96909 -1.3665,2.36032 -0.496909,4.47218 -0.745364,2.85723 1.3665,2.98146 2.111864,3.47836 1.739182,3.72682 0.993819,3.10568 -0.248455,2.48455 -0.248454,0.37268 0,1.61495 4.347955,4.84487 -0.372682,1.86341 -0.496909,1.73918 -0.496909,1.49073 0.124227,6.33559 1.614955,2.85723 1.490727,1.98763 2.111864,0.37268 0.745364,2.11187 -0.869591,2.733 -1.614955,1.24227 -0.869591,0 -0.621136,2.98146 0.372681,2.23609 2.484546,3.35414 1.242273,4.0995 1.118046,3.60259 0.993818,2.36032 2.608773,4.47218 1.118046,1.98763 0.372682,2.2361 1.242273,0.74536 0,1.86341 -0.621137,1.49073 -1.3665,5.466 -0.372682,1.49073 1.863409,2.11186 3.22991,0.37268 3.478364,1.3665 2.981455,1.61496 2.236091,0 2.236092,2.36031 1.987636,3.72682 0.869591,1.73919 2.981455,1.61495 3.726819,0.62114 1.118046,1.61495 0.496909,2.48455 -1.118046,0.49691 0.248455,0.74536 2.484547,0.62114 2.111864,0.12422 2.236091,3.6026 2.981458,3.2299 0.621136,1.73919 1.987637,3.22991 0.248454,2.48454 0,7.20518 0.372682,1.36651 7.702092,1.11804 15.155726,2.11186 11.18046,1.24228 z m -68.076311,-38.69784 0.993822,1.18016 -0.124227,0.99382 -2.484555,-0.0621 -0.434797,-0.93171 -0.496911,-1.11806 2.546668,-0.0621 z m 1.490733,0 0.931708,-0.49691 2.733009,1.61495 2.360328,0.93171 -0.683253,0.49692 -3.478377,-0.18634 -1.242276,-1.24229 -0.621139,-1.11804 z m 15.901149,15.21789 1.366501,1.8013 0.621144,0.74538 1.180163,0.43479 0.434792,-1.11805 -0.745364,-1.36651 -2.049754,-1.55284 -0.807482,0.12423 0,0.9317 z m -1.118053,6.64618 1.366508,2.42245 0.931709,1.49073 -1.118054,0.18634 -0.993818,-0.93171 c 0,0 -0.559027,-1.11804 -0.559027,-1.42862 0,-0.31056 0,-1.67707 0,-1.67707 l 0.372682,-0.0621 z" id="CA" style="stroke:#ffffff;stroke-width:0.5;stroke-miterlimit:4;stroke-opacity:1;stroke-dasharray:none;fill:#a0a0a0"/>
<path d="m 302.76193,257.45181 3.16231,-50.59702 1.22979,-17.21704 -25.64987,-2.10821 -18.79846,-1.58118 -28.63624,-3.16229 -15.89943,-1.9325 -2.02038,17.04138 -2.45957,17.21703 -2.88372,21.50623 -1.15702,8.53575 -0.43921,2.98663 26.44045,3.16231 28.3851,3.40194 25.17658,1.6929 5.1168,0.52705 8.7842,0.43921" id="CO" style="stroke:#ffffff;stroke-width:0.5;stroke-miterlimit:4;stroke-opacity:1;stroke-dasharray:none;fill:#a0a0a0"/>
<path d="m 686.15954,147.58201 -0.74382,-3.23085 -0.62113,-3.35414 -1.24228,-4.59642 -3.97529,0.86959 -16.77071,3.66471 0.49691,2.54667 1.11804,5.59025 0,6.21137 -0.86959,1.73919 1.4081,1.62074 3.80791,-2.61364 2.733,-2.48454 1.49073,-1.61496 0.62114,0.49691 2.11186,-1.11804 3.97528,-0.8696 6.45985,-2.85724 z" id="CT" style="stroke:#ffffff;stroke-width:0.5;stroke-miterlimit:4;stroke-opacity:1;stroke-dasharray:none;fill:#2f5370"/>
<path d="m 628.83713,202.9815 0.72247,-1.49655 1.9094,1.29013 -1.18692,2.37385 -0.15482,-1.03211 z" id="DC" style="stroke:#ffffff;stroke-width:0.5;stroke-miterlimit:4;stroke-opacity:1;stroke-dasharray:none;fill:#a0a0a0"/>
<path d="m 646.28254,186.46517 0.62264,-1.61582 0.18634,-0.99382 -1.55284,0 -1.61497,1.24228 -1.11804,1.11805 1.11804,3.22991 1.73919,4.34797 1.61496,7.45365 1.24228,4.84488 3.85105,-0.12423 4.71988,-0.9313 -1.73993,-5.65193 -0.74537,0.37268 -2.733,-1.86341 -1.3665,-3.60259 -1.49072,-2.733 -1.73919,-0.74537 -1.61495,-2.733 0.62113,-1.61495 z" id="DE" style="stroke:#ffffff;stroke-width:0.5;stroke-miterlimit:4;stroke-opacity:1;stroke-dasharray:none;fill:#2c3e50"/>
<path d="m 594.72914,351.066 1.60519,6.30316 2.86607,7.4864 4.0995,7.20518 2.85723,4.84486 3.72682,4.22373 3.10568,2.85723 1.24227,2.23609 -0.86959,0.99382 -0.62113,0.99382 2.23609,5.71445 2.23609,2.23609 1.98764,4.09951 2.733,4.47218 3.47836,6.33559 0.99382,5.83868 0.37268,9.19282 0.49691,1.3665 -0.24846,2.60878 -1.8634,0.99381 0.24845,1.49073 -0.49691,1.49073 0.24846,1.86341 0.37268,1.49073 -2.11187,2.48454 -2.36032,1.11805 -2.98145,0.12422 -1.11805,1.24228 -1.86341,0.74536 -0.99381,-0.37268 -0.86959,-0.74536 -0.24846,-2.2361 -0.62114,-2.60877 -2.60877,-3.97527 -2.733,-1.73918 -2.98145,-0.24846 -0.62114,0.99382 -2.36032,-3.35414 -0.49691,-2.733 -1.98763,-3.10568 -1.36651,-0.86959 -1.24227,1.61495 -1.3665,-0.24845 -1.61495,-3.85105 -2.23609,-2.98145 -2.2361,-4.0995 -1.98763,-2.36032 -2.733,-2.85723 1.61495,-1.86341 2.48455,-4.22373 -0.12423,-1.24227 -3.47836,-0.74536 -1.24228,0.49691 0.24846,0.49691 1.98764,0.74536 -1.11805,3.47836 -0.62114,0.37269 -1.3665,-3.10569 -0.99382,-3.72682 -0.24845,-2.11186 1.11805,-3.60259 0,-7.32941 -2.36032,-2.85723 -0.99382,-2.36032 -3.97527,-0.99382 -1.49073,-0.4969 -1.24228,-1.98764 -2.60877,-1.24227 -0.86959,-2.60878 -2.11186,-0.74536 -1.86341,-2.85723 -3.22991,-1.11804 -2.23609,-1.11805 -1.98764,0 -3.10568,0.62114 -0.12423,1.49072 0.62114,0.74537 -0.37268,0.86959 -2.36032,-0.12423 -2.85723,2.733 -2.733,1.49073 -2.98146,0 -2.48454,0.99382 -0.24846,-2.11187 -1.24227,-1.49072 -2.23609,-0.8696 -1.24227,-1.11804 -6.21137,-2.98146 -5.83868,-1.3665 -3.35414,0.49691 -4.59641,0.37269 -4.59641,1.61495 -2.67361,0.47103 -0.18283,-6.1858 -1.98763,-1.49072 -1.3665,-1.3665 0.24845,-2.36033 7.82633,-0.99382 19.62794,-2.23609 5.21755,-0.49691 4.72065,-0.12423 1.98764,2.98146 1.11804,1.11804 6.08716,0.12423 8.31438,-0.49691 16.53111,-0.99382 4.18473,-0.51821 3.51737,0.0213 0.12423,2.23609 1.98764,0.62113 0.24845,-3.35413 -1.24227,-3.47838 0.86959,-1.24227 4.47219,0.62114 3.97528,0.24845 z m 9.50463,102.42533 1.86341,-0.49691 0.99382,-0.18634 1.11805,-1.80131 1.8013,-1.24227 0.99383,0.37268 1.30439,0.24846 0.31057,0.80748 -2.6709,0.93171 -3.22992,1.11804 -1.8013,0.93171 -0.68325,-0.68325 z m 10.37301,-3.85106 0.93171,0.80749 2.11187,-1.61497 4.09952,-3.22991 2.85723,-2.98148 1.92553,-5.09333 0.74537,-1.30439 0.12423,-2.60878 -0.55903,0.37268 -0.74536,2.17398 -1.11806,3.54049 -2.48455,4.03741 -3.35414,3.22992 -2.60879,1.49073 -1.92553,1.18016 z" id="FL" style="stroke:#ffffff;stroke-width:0.5;stroke-miterlimit:4;stroke-opacity:1;stroke-dasharray:none;fill:#a0a0a0"/>
<path d="m 544.04433,284.48008 -3.72683,0.62114 -6.45983,0.86959 -6.58405,0.68324 0,1.67708 0.12423,1.61496 0.49691,2.60877 2.60878,6.08715 1.86341,7.57788 1.11804,4.72064 1.24227,3.72682 1.11806,5.34178 1.61495,4.84487 1.98764,2.60879 0.37268,2.60877 1.49074,0.62113 0.12422,1.61497 -1.3665,3.72682 -0.37269,2.48455 -0.12422,1.49073 1.24228,3.35414 0.24845,4.0995 -0.62114,1.86342 0.49692,0.62114 1.11804,0.62113 0.49691,2.60878 1.98764,2.98146 1.11804,1.11804 6.08716,0.12423 8.31438,-0.49691 16.53111,-0.99382 4.18473,-0.51821 3.51737,0.0213 0.12423,2.23609 1.98764,0.62113 0.24845,-3.35413 -1.24227,-3.47838 0.86959,-1.24227 4.47219,0.62114 3.82487,0.2442 -0.59587,-4.84029 1.73918,-7.70209 1.11804,-3.22991 -0.37268,-1.98763 3.10568,-5.34178 -0.46005,-1.24245 -1.40243,0.74519 -1.98764,-0.99383 -0.49691,-1.61496 -0.99382,-2.733 -1.73919,-1.61496 -1.98763,-0.49691 -1.24228,-3.72682 -2.11187,-4.59641 -3.22991,-1.49074 -1.61496,-1.49073 -0.99382,-1.98763 -1.61495,-1.49074 -1.73919,-0.99382 -1.73919,-2.23609 -2.36032,-1.73918 -3.47837,-1.36651 -0.37268,-1.11804 -1.86341,-2.2361 -0.37268,-1.11805 -2.60878,-3.97527 -2.60877,0.12422 -3.10569,-1.86341 -0.99382,-0.99382 -0.24846,-1.3665 0.62114,-1.49073 1.73918,-0.74537 -0.12423,-1.75426 -1.3665,0.38776 -4.47219,0.74536 -5.34178,0.62114 -5.21755,0.37269 z" id="GA" style="stroke:#ffffff;stroke-width:0.5;stroke-miterlimit:4;stroke-opacity:1;stroke-dasharray:none;fill:#326890"/>
<path d="m 193.2266,408.4586 1.49074,-2.73302 1.73919,-0.24845 0.24845,0.62113 -1.61496,2.36034 -1.86342,0 z m 7.82636,-2.85725 4.72066,1.98765 1.61496,-0.24846 1.24228,-2.98147 -0.49691,-2.60878 -3.22993,-0.37268 -3.1057,1.3665 -0.74536,2.85724 z m 23.6033,7.70214 2.85723,4.22374 1.86342,-0.24846 0.8696,-0.37268 1.11804,0.99382 2.85725,-0.12423 0.74537,-1.11804 -2.23611,-1.36651 -1.49073,-2.85724 -1.61497,-2.73301 -4.47219,2.2361 -0.49691,1.36651 z m 15.52848,6.83253 0.99382,-1.49074 3.60261,0.74537 0.49691,-0.37269 4.72066,0.49691 -0.24846,0.99383 -1.98764,1.11805 -3.35416,-0.24846 -4.22374,-1.24227 z m 4.09952,3.97529 1.49073,2.98147 2.36033,-0.8696 0.24845,-1.24228 -1.24227,-1.61496 -2.85724,-0.24846 0,0.99383 z m 5.34179,-0.8696 1.73919,-2.2361 3.60261,1.86342 3.35415,0.8696 3.35416,2.11187 0,1.49073 -2.73301,1.36651 -3.72684,0.74536 -1.86342,-1.11805 -3.72684,-5.09334 z m 12.79548,11.92587 1.24227,-0.99381 2.60879,1.24228 5.83871,2.733 2.60879,1.61497 1.24227,1.86341 1.49073,3.35416 3.1057,1.98764 -0.24845,0.99383 -2.98147,2.48455 -3.22993,1.11806 -1.11804,-0.49691 -2.36034,1.3665 -1.86342,2.48456 -1.73919,2.2361 -1.3665,-0.12423 -2.73301,-1.98764 -0.24846,-3.47838 0.49691,-1.86342 -1.24228,-4.34798 -1.61496,-1.36651 -0.12423,-1.98764 1.73919,-0.74537 1.61496,-2.36032 0.37269,-0.74538 -1.24228,-1.3665 -0.24845,-1.61497 z" id="HI" style="stroke:#ffffff;stroke-width:0.5;stroke-miterlimit:4;stroke-opacity:1;stroke-dasharray:none;fill:#a0a0a0"/>
<path d="m 450.29264,164.16357 0.0439,1.40546 1.75684,0.52705 0.70273,0.87842 0.35137,1.40547 2.98663,2.63527 0.52706,1.75684 -0.52706,2.63526 -1.40547,2.81094 -0.52705,1.93252 -1.75684,1.40548 -1.40548,0.52706 -4.04073,1.0541 -0.52706,1.40547 -0.52704,1.58116 0.52704,1.0541 1.40548,1.22979 -0.17568,3.16231 -1.40548,1.22979 -0.52705,1.22979 0,2.10821 -1.40547,0.35136 -1.22979,0.87843 -0.17569,1.05411 0.17569,1.58115 -1.31763,1.36155 -2.54742,-2.59134 -0.87842,-1.75684 -5.97326,0.52705 -7.55442,0.35137 -19.50093,0.70274 -10.36536,0.17568 -7.20304,0.17569 -0.83671,0.0932 -1.27151,-4.1339 -0.17568,-5.09485 -1.22979,-3.16231 -0.52705,-4.04073 -1.75684,-2.81095 -0.70273,-3.68937 -2.10822,-5.79757 -0.87841,-4.12858 -1.05411,-1.66899 -1.22979,-2.10821 1.40547,-3.338 1.05411,-4.3921 -2.10821,-1.58116 -0.35137,-2.10821 0.70274,-1.93253 1.31764,0 8.87203,0 38.12345,-0.52705 13.87904,-0.52705 3.16232,-0.0878 0.52705,2.54741 1.75684,1.22979 0.17568,1.0541 -1.58116,2.63526 0.17569,2.45958 1.93253,2.98663 1.93252,0.87842 2.28389,0.35136 1.01019,2.10823 z" id="IA" style="stroke:#ffffff;stroke-width:0.5;stroke-miterlimit:4;stroke-opacity:1;stroke-dasharray:none;fill:#2f5370"/>
<path d="m 122.19944,145.85176 3.64857,-14.18961 3.338,-13.61551 1.0541,-3.25016 1.93253,-4.56778 -0.96626,-1.75684 -1.93254,0.0878 -0.61488,-0.79058 0.35136,-0.87841 0.26352,-2.37174 3.42585,-4.21642 1.40547,-0.35137 0.87842,-0.87841 0.43921,-2.45958 0.70273,-0.52705 2.98663,-4.479945 2.98663,-3.337997 0.17569,-2.898785 -2.63527,-2.020369 -1.01018,-3.381916 0.30745,-7.422647 2.81095,-12.649256 3.42583,-15.987245 2.89879,-10.36535 0.5855,-2.922542 10.85005,2.066037 -3.44189,16.404419 2.63526,5.79757 -1.0541,3.513681 1.40547,3.51368 2.45958,1.054107 2.81094,7.905785 2.81095,2.81094 0.35136,0.878424 2.63527,0.878424 0.35137,1.581149 -5.44621,13.52768 0,1.932526 1.93253,2.45957 0.70273,0 3.68936,-2.28389 0.52706,-0.878423 1.22979,0.527053 -0.17569,4.04073 2.10821,9.66263 2.28389,1.93252 0.70274,0.52705 1.40547,1.75684 -0.35137,2.63527 0.52705,2.63525 0.87843,0.70274 1.75684,-1.75684 2.1082,0 2.45959,1.2298 1.93252,-0.70275 3.16231,0 2.81094,1.22979 2.10822,-0.35136 0.35136,-2.2839 2.28389,-0.52705 1.05411,1.05411 0.35137,2.45957 2.02037,1.58116 -2.89879,18.79819 -3.95292,23.27819 -3.68939,-0.61485 -6.41247,-1.0541 -7.90577,-1.40548 -9.22342,-1.58115 -9.75047,-1.80076 -6.14893,-1.53724 -7.1152,-1.40547 -7.46658,-1.49332 -16.12213,-3.46663 z" id="ID" style="stroke:#ffffff;stroke-width:0.5;stroke-miterlimit:4;stroke-opacity:1;stroke-dasharray:none;fill:#a0a0a0"/>
<path d="m 489.38424,241.24891 0,-2.85723 0.37268,-3.47837 1.73918,-2.23609 1.36651,-2.98146 1.98764,-3.22991 -0.37268,-4.47219 -1.3665,-2.11188 -0.24846,-2.48454 0.62114,-4.22374 -0.37268,-5.34178 -0.99383,-12.29852 -0.99382,-11.8016 -0.62152,-8.94409 -0.9942,-0.62084 -0.62113,-1.98764 -0.99382,-2.85723 -1.24227,-1.3665 -1.11805,-1.98763 -0.17948,-4.21797 -7.60967,1.00839 -20.9064,1.31762 -6.676,-0.3294 0.17568,1.82272 1.75684,0.52705 0.70273,0.87842 0.35137,1.40547 2.98663,2.63527 0.52706,1.75684 -0.52706,2.63526 -1.40547,2.81094 -0.52705,1.93252 -1.75684,1.40548 -1.40548,0.52706 -4.04073,1.0541 -0.52705,1.40547 -0.52705,1.58116 0.52705,1.0541 1.40547,1.22979 -0.17568,3.16231 -1.40548,1.22979 -0.52705,1.22979 0,2.10821 -1.40547,0.35136 -1.22979,0.87843 -0.17568,1.05411 0.17568,1.58115 -1.31763,1.01018 -0.79058,2.15214 0.35137,2.81094 1.75684,5.62189 5.62189,5.79757 4.21642,2.81095 -0.17569,3.338 0.70275,1.0541 4.91915,0.35137 2.10821,1.05411 -0.52705,2.81094 -1.75684,4.56778 -0.52706,2.45959 1.75684,2.98662 4.91915,4.04074 3.51369,0.52705 1.58115,3.86505 1.58116,2.45957 -0.70274,2.28389 1.2298,3.16232 1.40547,1.58116 2.27892,-0.26004 0.44048,-1.57509 1.73919,-1.3665 1.61496,-0.49691 2.11186,0.99382 2.73301,0.99381 0.86959,-0.24845 0.12423,-1.73918 -0.99382,-1.86342 0.24846,-1.73918 1.49072,-1.11805 1.98765,-0.49691 1.24227,-0.49691 -0.62114,-1.3665 -0.4969,-1.49073 0.86959,-0.62114 0.74536,-2.60878 z" id="IL" style="stroke:#ffffff;stroke-width:0.5;stroke-miterlimit:4;stroke-opacity:1;stroke-dasharray:none;fill:#a0a0a0"/>
<path d="m 489.50847,241.37314 -0.12423,-2.98146 0.37268,-3.47837 1.73918,-2.23609 1.36651,-2.98146 1.98764,-3.22991 -0.37268,-4.47219 -1.3665,-2.11188 -0.24846,-2.48454 0.62114,-4.22374 -0.37268,-5.34178 -0.99383,-12.29852 -0.99382,-11.8016 -0.74575,-9.0062 2.35994,0.68354 1.11805,0.74536 0.86959,-0.24845 1.61495,-1.49073 2.17438,-1.24257 3.91354,-0.12452 16.89494,-1.73919 4.72064,-0.49691 0.12423,0.86959 1.11805,11.3047 1.3665,10.55934 1.98764,18.01299 0.37268,4.34796 -0.37268,1.73918 1.11805,1.11805 0.24846,1.49073 -2.11187,1.49073 -2.98146,1.3665 -2.11187,0.24846 -0.37268,3.47837 -3.6026,2.98145 -2.23609,2.73301 0.24845,1.73918 -0.62114,1.61496 -3.60259,0 -0.8696,-1.24227 -0.86959,0.62113 -2.2361,1.24228 0.12424,2.60878 -1.61496,0.37268 -0.62114,-0.86959 -1.49073,-1.24228 -2.2361,1.11805 -1.3665,2.48455 -1.3665,-0.62114 -1.11804,-1.49073 -2.73301,0.37268 -4.47219,0.74537 -2.23609,1.3665 z" id="IN" style="stroke:#ffffff;stroke-width:0.5;stroke-miterlimit:4;stroke-opacity:1;stroke-dasharray:none;fill:#a0a0a0"/>
<path d="m 401.67207,259.7357 -10.18972,0.52705 -35.6636,-0.35136 -34.60996,-1.58118 -18.55666,-0.96625 3.18427,-50.59701 16.77783,0.61489 31.09586,1.0541 33.90725,0.35137 4.65562,0 2.37175,2.10821 1.75684,0.17568 1.0541,0.70274 0,2.28389 -1.40547,1.2298 -0.35137,1.75684 1.58115,2.63526 1.93254,2.28389 1.93252,1.40547 1.0541,8.95989 -0.52705,27.40672 z" id="KS" style="stroke:#ffffff;stroke-width:0.5;stroke-miterlimit:4;stroke-opacity:1;stroke-dasharray:none;fill:#3ca9f2"/>
<path d="m 569.54734,238.34152 -2.3967,2.41048 -3.22991,2.73301 -3.47838,4.09951 -1.3665,1.3665 0,1.61495 -2.98146,1.61496 -4.34795,2.60878 -2.00701,1.08037 -39.85766,3.7645 -12.11036,1.3665 -3.55115,0.39399 -2.97261,-0.0213 0,2.98147 -6.45983,0.37268 -5.34178,0.49691 -8.01534,0.15799 0.77227,-0.9551 1.67526,-1.35402 1.58115,-0.87841 0.17569,-2.45958 0.70274,-1.40548 -1.23476,-1.95101 0.61616,-1.46527 1.73919,-1.3665 1.61496,-0.49691 2.11186,0.99382 2.73301,0.99381 0.86959,-0.24845 0.12423,-1.73918 -0.99382,-1.86342 0.24846,-1.73918 1.49072,-1.11805 1.98765,-0.49691 1.24227,-0.49691 -0.62114,-1.3665 -0.4969,-1.49073 0.86959,-0.62114 0.80747,-2.54667 2.29821,-1.30438 4.47219,-0.74537 2.73301,-0.37268 1.11804,1.49073 1.3665,0.62114 1.3665,-2.48455 2.2361,-1.11805 1.49073,1.24228 0.62114,0.86959 1.61496,-0.37268 -0.12424,-2.60878 2.2361,-1.24228 0.86959,-0.62113 0.8696,1.24227 3.60259,0 0.62114,-1.61496 -0.24845,-1.73918 2.23609,-2.73301 3.6026,-2.98145 0.37268,-3.47837 2.11187,-0.24846 2.98146,-1.3665 2.11187,-1.49073 -0.24846,-1.49073 -1.11805,-1.11805 0.4348,-1.67706 3.1678,-0.18635 1.86341,-0.62113 2.2361,1.24227 1.24227,3.35414 4.47219,0.24845 1.3665,1.36651 1.61496,0.12423 1.86341,-1.11805 2.36032,0.37268 0.99382,1.11805 2.11187,-1.98765 1.3665,-0.99381 1.24227,0 0.49691,2.11187 1.36651,0.74536 2.733,1.61496 0.12423,4.22373 0.62114,1.24228 1.98764,1.11804 0.49691,1.73919 2.23609,2.85723 1.98764,2.11187 2.52093,1.68902 z" id="KY" style="stroke:#ffffff;stroke-width:0.5;stroke-miterlimit:4;stroke-opacity:1;stroke-dasharray:none;fill:#a0a0a0"/>
<path d="m 477.83033,372.86823 -0.96547,-1.74883 -0.87843,-2.98663 -2.63525,-2.45957 0.87841,-5.79758 -0.52705,-0.70273 -1.40547,0.17568 -6.32463,0.52705 -18.62251,0.52706 -0.35137,-1.22979 0.52705,-6.14895 2.63527,-4.74347 4.04073,-7.02736 -0.70273,-1.58116 0.87841,0 0.52706,-2.45957 -1.75685,-1.40547 0.17569,-1.40548 -1.58115,-3.51368 -0.26353,-4.21642 -8.345,0 -14.75746,0.70274 -17.06332,0.022 0.022,7.35676 0.52705,7.20305 0.52706,2.98663 1.93252,3.16231 0.70273,3.86506 3.338,4.21641 0.17568,2.45958 0.52706,0.52705 -0.52706,6.50031 -2.28389,3.86505 1.22979,1.58116 -0.52705,1.93252 -0.52705,5.6219 -1.05411,2.45957 0.0941,2.77904 3.6013,-1.16815 6.21137,-0.24845 7.95055,2.733 4.96909,0.86959 2.85722,-1.11805 2.48455,0.86959 2.48455,0.74537 0.62113,-1.61496 -2.48454,-0.86959 -1.98764,0.37268 -2.11186,-1.24227 c 0,0 0.12422,-0.99382 0.62113,-1.11804 0.49691,-0.12423 2.36032,-0.74537 2.36032,-0.74537 l 1.3665,1.11805 1.3665,-0.74537 2.48455,0.49691 1.11804,1.86341 0.24846,1.73918 3.47836,0.24846 1.3665,1.3665 -0.62113,1.24227 -0.99382,0.62114 1.24227,1.24227 6.45982,2.733 2.733,-0.99382 0.74536,-1.86341 1.98764,-0.49691 1.3665,-1.11804 0.99382,0.74536 0.62114,2.23609 -1.73919,0.62114 0.49691,0.49691 2.60878,-0.99382 1.73918,-2.60877 0.62113,-0.37268 -1.61495,-0.24846 0.62114,-1.24227 -0.12423,-1.11805 1.61495,-0.37268 0.86959,-0.99382 0.49691,0.62114 c 0,0 -0.12422,2.36032 0.49691,2.36032 0.62114,0 3.22991,0.49691 3.22991,0.49691 l 3.10568,1.49072 0.74537,1.11805 2.23609,0 0.86959,0.74536 1.73918,-2.36031 0,-1.11805 -0.99382,0 -2.60877,-2.11186 -4.47218,-0.62114 -2.48455,-1.73918 0.86959,-2.11187 1.73919,0.24846 0.12422,-0.49691 -1.3665,-0.74537 0,-0.37268 2.48455,0 1.3665,-2.36032 -0.99382,-1.49072 -0.24845,-2.11187 -1.11805,0.12423 -1.49073,1.61496 -0.49691,1.98763 -2.36031,-0.49691 -0.74537,-1.3665 1.3665,-1.49072 1.55284,-1.3665 0.68324,-0.55902 z" id="LA" style="stroke:#ffffff;stroke-width:0.5;stroke-miterlimit:4;stroke-opacity:1;stroke-dasharray:none;fill:#a0a0a0"/>
<path d="m 705.69499,142.99268 1.669,-0.52706 0.35138,-1.31763 0.79058,0.0878 0.79058,1.75685 -0.96627,0.35136 -2.98663,0.0879 0.35136,-0.43921 z m -7.20306,0.61489 1.75684,-2.02037 1.2298,0 1.40547,1.14195 -1.84468,0.79058 -1.669,0.79057 -0.87843,-0.70273 z m -26.74124,-16.89672 13.41658,-3.22992 1.73919,-0.49691 1.61495,-2.48454 2.87151,-1.27817 2.22022,3.39103 -1.86341,3.97527 -0.24845,1.11805 1.49073,1.98764 0.86959,-0.62114 1.3665,0 1.73918,1.98764 2.98145,4.59641 2.733,0.37268 1.73919,-0.74537 1.3665,-1.3665 -0.62114,-2.11186 -1.61495,-1.24227 -1.11805,0.62113 -0.74536,-0.99381 0.37268,-0.37269 1.61495,-0.12422 1.3665,0.62113 1.49073,1.86341 0.74536,2.23609 0.24846,1.86341 -3.22991,1.11805 -2.98146,1.49073 -2.98145,3.47836 -1.49073,1.11805 0,-0.74537 1.86341,-1.11804 0.37268,-1.3665 -0.62113,-2.36032 -2.23609,1.11804 -0.62114,1.11805 0.37268,1.73918 -2.11105,1.11757 -2.11108,-3.47885 -2.60878,-3.35414 -1.24227,-0.8696 -4.41008,1.18017 -3.91318,0.80747 -16.77071,3.66471 -0.74536,-4.41007 0.4969,-8.1369 3.97529,-0.68326 5.21755,-0.99382" id="MA" style="stroke:#ffffff;stroke-width:0.5;stroke-miterlimit:4;stroke-opacity:1;stroke-dasharray:none;fill:#2c3e50"/>
<path d="m 657.09032,204.97503 -4.71913,0.99301 -3.85105,0.12423 -1.24228,-4.84488 -1.61496,-7.45365 -1.73919,-4.34797 -0.99005,-3.37987 -6.37836,1.24669 -11.43156,2.16957 -28.7794,5.80245 0.86935,3.85119 0.74536,4.34796 0.24846,-0.24846 1.61496,-1.86341 1.73918,-2.36032 1.86341,-0.12423 1.11805,-1.11804 1.3665,-1.98764 0.99382,0.49691 2.23609,-0.24846 1.98765,-1.61495 1.54218,-1.11676 1.41797,-0.37268 1.26358,0.8683 2.23609,1.11805 1.49073,1.3665 0.93171,1.18016 3.1678,1.30438 0,2.2361 4.22374,0.99382 1.49072,0.99382 0.74537,-1.49073 1.73919,1.24227 -1.11806,2.48456 -0.24845,2.11186 -1.3665,1.98764 0,1.61496 0.49691,1.3665 3.89137,1.04178 3.31284,-0.0474 2.36032,0.74537 1.61495,0.24845 0.74537,-1.61495 -1.11805,-1.61496 0,-1.3665 -1.86341,-1.61495 -1.61495,-4.22373 0.99382,-4.0995 -0.12423,-1.61496 -0.99382,-0.99381 c 0,0 1.11805,-1.24228 1.11805,-1.73919 0,-0.49691 0.37268,-1.61495 0.37268,-1.61495 l 1.49073,-0.99382 1.49072,-1.24227 0.37269,0.74536 -1.11805,1.24227 -0.99382,2.85723 0.24846,0.86959 1.3665,0.24846 0.37268,4.22372 -1.61496,0.74537 0.24846,2.733 0.37268,-0.12423 0.86959,-1.49073 1.24227,1.3665 -1.24227,0.99382 -0.24845,2.60878 1.98763,2.60877 2.98146,0.37268 1.24227,-0.62114 2.48455,3.97528 1.3665,0.37268 0,2.733 -1.73918,3.72682 -0.37269,5.34177 1.11805,2.60878 1.11804,0.12422 1.49073,-3.22991 0.62114,-2.733 0.12423,-5.466 2.36031,-3.72682 1.61496,-5.34177 0,-4.34796 z m -12.60677,7.51453 0.86959,1.92552 0.12423,1.36651 0.86959,1.42862 c 0,0 0.68325,-0.68325 0.68325,-0.93171 0,-0.24845 -0.55901,-2.36032 -0.55901,-2.36032 l -0.55903,-1.80131 -1.42862,0.37269 z" id="MD" style="stroke:#ffffff;stroke-width:0.5;stroke-miterlimit:4;stroke-opacity:1;stroke-dasharray:none;fill:#2c3e50"/>
<path d="m 723.55192,68.821924 1.49073,1.614955 1.73918,2.857228 0,1.490727 -1.61496,3.602591 -1.49072,0.49691 -2.60878,2.360318 -3.72681,4.223728 c 0,0 -0.49691,0 -0.99382,0 -0.49691,0 -0.74537,-1.614955 -0.74537,-1.614955 l -1.3665,0.124228 -0.74536,1.118045 -1.86341,1.118046 -0.74536,1.118045 1.24227,1.118046 -0.37268,0.496909 -0.37268,2.111864 -1.49073,-0.124227 0,-1.242273 -0.24846,-0.993818 -1.11804,0.248454 -1.3665,-2.484546 -1.61496,0.993819 0.99382,1.118045 0.24846,0.869591 -0.62114,0.993819 0.24845,2.360317 0.12423,1.24227 -1.24227,1.98764 -2.23609,0.37268 -0.24846,2.23609 -4.0995,2.36032 -0.99382,0.37268 -1.24227,-1.11804 -2.36032,2.733 0.74537,2.48454 -1.11805,0.99382 -0.12423,3.35414 -1.21198,5.85636 -1.8921,-0.88829 -0.37269,-2.36032 -2.98146,-0.86959 -0.24845,-2.11188 -5.59025,-18.012992 -3.66237,-11.353397 1.8764,-0.265198 1.16326,0.314985 0,-1.987637 0.62114,-4.223728 1.98764,-3.602591 1.11804,-3.105683 -1.49072,-1.863409 0,-4.59641 0.62113,-0.745364 0.62114,-2.111863 -0.12423,-1.118046 -0.12423,-3.726819 1.3665,-3.726819 2.2361,-6.8325 1.61495,-3.22991 0.99382,0 0.99382,0.124227 0,0.869591 0.99382,1.739182 2.11186,0.49691 0.62114,-0.621137 0,-0.745364 3.10568,-2.236091 1.3665,-1.3665 1.11804,0.124227 4.59641,1.86341 1.49073,0.745363 6.95673,22.982049 4.59641,0 0.62114,1.490728 0.12422,3.726818 2.23609,1.739182 0.62114,0 0.12423,-0.372682 -0.37268,-0.869591 2.11186,-0.124227 z m -16.08492,23.16674 1.18016,-1.180163 1.05594,0.807481 0.4348,1.863418 -1.30439,0.68325 -1.36651,-2.173986 z m 5.15545,-4.534308 1.3665,1.428618 c 0,0 0.99383,0.06209 0.99383,-0.186345 0,-0.248455 0.18634,-1.552845 0.18634,-1.552845 l 0.68325,-0.621137 -0.62113,-1.366508 -1.55285,0.559027 -1.05594,1.73919 z" id="ME" style="stroke:#ffffff;stroke-width:0.5;stroke-miterlimit:4;stroke-opacity:1;stroke-dasharray:none;fill:#a0a0a0"/>
<path d="m 461.05437,72.455356 1.40547,-1.581157 1.669,-0.614896 4.12859,-2.986638 1.75684,-0.439212 0.35137,0.351374 -3.9529,3.952901 -2.54743,1.493311 -1.58115,0.702741 -1.22979,-0.878424 z m 66.22032,24.688764 0.49691,1.92552 2.48456,0.12423 0.99382,-0.93171 c 0,0 -0.0621,-1.11804 -0.31057,-1.24227 -0.24846,-0.12423 -1.24227,-1.42862 -1.24227,-1.42862 l -1.67708,0.18634 -1.24228,0.12423 -0.24845,0.86959 0.74536,0.37269 z m 23.10439,48.45027 -2.48455,-6.33559 -1.73918,-6.95673 -1.86341,-2.48455 -1.98764,-1.3665 -1.24227,0.86959 -2.98146,1.3665 -1.49072,3.85105 -2.11187,2.85723 -0.86959,0.49691 -1.11804,-0.49691 c 0,0 -1.98764,-1.11805 -1.86341,-1.61496 0.12422,-0.49691 0.37268,-3.85104 0.37268,-3.85104 l 2.60877,-0.99382 0.62114,-2.60877 0.49691,-1.98764 1.86341,-1.24227 -0.24846,-7.7021 -1.24227,-1.73918 -0.99382,-0.62113 -0.62114,-1.61496 0.62114,-0.62114 1.24227,0.24846 0.12423,-1.24227 -1.86341,-1.73919 -0.99382,-1.98763 -1.98763,0 -3.47837,-1.11805 -4.22372,-2.60877 -2.11187,0 -0.49691,0.49691 -0.74536,-0.37268 -2.36032,-1.73919 -2.23609,1.3665 -2.23609,1.73919 0.24845,2.733 0.74537,0.24845 1.61495,0.37268 0.37268,0.62114 -1.98763,0.62114 -1.98764,0.24845 -1.11805,1.3665 -0.24845,1.61496 0.24845,1.24227 0.24846,4.22373 -2.733,1.61495 -0.49691,-0.12423 0,-3.22991 0.99382,-1.8634 0.49691,-1.86341 -0.62114,-0.62114 -1.49073,0.62114 -0.74536,3.22991 -2.11187,0.86959 -1.3665,1.49072 -0.12422,0.74537 0.49691,0.62113 -0.49691,1.98764 -1.73919,0.37268 0,0.86959 0.62114,1.86341 -0.86959,4.72064 -1.24227,3.10568 0.49691,3.60259 0.37268,0.86959 -0.62114,1.86341 -0.24845,0.62114 -0.24846,2.11186 2.733,4.59641 2.23609,4.9691 1.11805,3.72681 -0.62114,3.6026 -0.74536,4.59641 -1.86341,3.97527 -0.24845,2.11186 -2.36917,2.39048 -0.57109,0.59068 3.56217,-0.12452 16.89494,-1.73919 4.72064,-0.49691 0.24846,0.93171 5.96292,-0.93171 7.82633,-1.24227 4.00812,-0.35419 -1.0275,-0.88749 0.12423,-1.11804 1.61495,-2.85723 1.53732,-1.33544 -0.17082,-3.88211 1.2272,-1.22719 0.83808,-0.26353 0.17081,-2.733 1.18016,-2.32926 0.80748,0.46585 0.12423,0.49691 0.62113,0.12422 1.49073,-0.74536 -0.24845,-7.32941 z m -101.05271,-50.38684 1.42242,-0.7948 2.11186,-0.62114 2.733,-1.73918 0,-0.745366 0.49691,-0.496909 4.59641,-0.745364 1.86341,-1.490728 3.35414,-1.614954 0.12423,-0.993819 1.49072,-2.236091 1.3665,-0.621136 0.99382,-1.366501 1.73918,-1.739182 3.35414,-1.863409 3.60259,-0.372682 0.86959,0.869591 -0.24845,0.745364 -2.85723,0.745364 -1.11804,2.360318 -1.73919,0.621137 -0.37268,1.863409 -1.86341,2.484546 -0.24845,1.987636 0.62113,0.372682 0.74537,-0.869591 2.733,-2.236091 0.99382,0.993818 1.73918,0 2.48454,0.745364 1.11805,0.869591 1.11805,2.360319 2.11186,2.111864 2.98145,-0.12423 1.11805,-0.74536 1.24227,0.99382 1.24228,0.37268 0.99381,-0.62114 0.8696,0 1.24227,-0.74536 3.10568,-2.733002 2.60877,-0.869591 5.09332,-0.248455 3.47837,-1.490727 1.98763,-0.993818 1.11805,0.124227 0,4.347955 0.37268,0.248455 2.23609,0.621136 1.49073,-0.372682 4.72064,-1.242273 0.86959,-0.869591 1.11804,0.372682 0,5.341774 2.48455,2.36032 0.99382,0.49691 0.99382,0.74536 -0.99382,0.24846 -0.62114,-0.24846 -2.85723,-0.37268 -1.61495,0.49691 -1.73918,-0.12423 -2.48455,1.11805 -1.3665,0 -4.47218,-0.99382 -3.97528,0.12423 -1.49072,1.98763 -5.34178,0.49691 -1.86341,0.62114 -0.86959,2.36032 -0.99382,0.86959 -0.37268,-0.12423 -1.11804,-1.24227 -3.47837,1.86341 -0.49691,0 -0.86959,-1.24228 -0.62113,0.12423 -1.49073,3.35414 -0.74536,3.10568 -2.88052,6.25173 -1.25307,-0.88199 -1.05411,-1.0541 -1.22979,-7.90579 -2.81094,-0.87841 -1.0541,-1.75684 -9.66263,-2.10822 -1.93252,-0.87842 -6.32463,-1.75684 -6.32463,-0.87842 -3.29408,-4.12858 z" id="MI" style="stroke:#ffffff;stroke-width:0.5;stroke-miterlimit:4;stroke-opacity:1;stroke-dasharray:none;fill:#a0a0a0"/>
<path d="m 376.72493,108.12033 -0.35137,-6.50031 -1.40547,-5.62189 -1.40547,-10.365355 -0.35137,-7.554419 -1.40547,-2.635264 -1.22979,-3.865047 0,-7.905785 0.52705,-2.986631 -1.39929,-4.18931 23.15512,0.02711 0.24846,-6.335592 0.49691,-0.124227 1.73918,0.372682 1.49073,0.621137 0.62113,4.223727 1.11805,4.720637 1.24227,1.242273 3.72682,0 0.24845,1.118046 4.84487,0.248455 0,1.614954 3.72682,0 0.24845,-0.993818 0.86959,-0.869591 1.73918,-0.496909 0.99382,0.745364 2.23609,0 2.98146,1.987636 4.0995,1.86341 1.86341,0.372681 0.37268,-0.745363 1.11805,-0.372682 0.37268,2.236091 1.98763,0.993818 0.37269,-0.372682 0.99381,0.124228 0,1.614955 1.98764,0.745363 2.36032,0 1.24227,-0.621136 2.48455,-2.484546 1.98764,-0.372682 0.62113,1.3665 0.37268,0.993819 0.74537,0 0.74536,-0.621137 6.8325,-0.248454 1.3665,2.360318 0.49691,0 0.54837,-0.833209 3.41183,-0.284836 -0.47036,1.75164 -3.0267,1.411731 -7.10487,3.120756 -3.66913,1.542192 -2.36032,1.987637 -1.86341,2.733 -1.73918,2.981455 -1.3665,0.621136 -3.47837,3.851046 -0.99382,0.124228 -2.60877,2.36032 0.52867,0.41742 -2.16428,2.08019 -0.17568,2.1082 0,6.50032 -0.87843,1.22979 -4.04073,2.98662 -1.75684,4.56779 0.35137,0.17568 1.93252,1.58116 0.52705,2.45958 -1.40547,2.45957 0,2.98663 0.35137,5.09484 2.28389,2.2839 2.63527,0 1.40547,2.45957 2.63526,0.35137 2.98663,4.3921 5.4462,3.16232 1.58116,2.1082 0.70274,5.79758 -3.16231,0 -13.87905,0.52705 -38.12344,0.52705 -8.87204,0 0.4392,-5.27052 -0.17568,-23.36598 -0.35137,-2.28389 -3.16231,-2.63527 -0.87843,-1.40547 0,-1.22979 1.58116,-1.22978 1.05411,-1.05411 0.17568,-2.45958 z" id="MN" style="stroke:#ffffff;stroke-width:0.5;stroke-miterlimit:4;stroke-opacity:1;stroke-dasharray:none;fill:#a0a0a0"/>
<path d="m 441.72804,201.23291 -2.45958,-2.45959 -0.87842,-1.75684 -5.97326,0.52705 -7.55441,0.35137 -19.50094,0.70274 -10.36536,0.17568 -6.06107,0.0878 -1.75687,0.0878 0.96627,1.93252 -0.17569,1.75684 1.93253,2.98663 2.37172,3.16231 2.37175,2.10821 1.75684,0.17568 1.0541,0.70274 0,2.28389 -1.40547,1.2298 -0.35137,1.75684 1.58115,2.63526 1.93254,2.28389 1.93252,1.40547 1.0541,8.95989 -0.52705,27.1432 0.17568,3.60151 0.35137,5.27052 17.91978,-0.35136 17.91977,-0.52705 15.98726,-0.70274 8.43283,-0.35137 1.40547,2.2839 -0.35136,1.75684 -2.45958,2.10821 -0.52705,2.28389 4.74347,0.35137 3.86504,-0.52706 1.58116,-4.91915 -0.1098,-4.32622 2.21802,-1.11999 1.0541,-1.22979 1.58115,-0.87841 0.17569,-2.45958 0.70274,-1.40548 -1.05411,-1.86664 -2.28389,0.28549 -1.40547,-1.58116 -1.2298,-3.16232 0.70274,-2.28389 -1.58116,-2.45957 -1.58115,-3.86505 -3.51369,-0.52705 -4.91915,-4.04074 -1.75684,-2.98662 0.52706,-2.45959 1.75684,-4.56778 0.52705,-2.81094 -2.10821,-1.05411 -4.91915,-0.35137 -0.70275,-1.0541 0.17569,-3.338 -4.21642,-2.81095 -5.62189,-5.79757 -1.75684,-5.62189 -0.35137,-2.81094 0.70274,-1.93252 z" id="MO" style="stroke:#ffffff;stroke-width:0.5;stroke-miterlimit:4;stroke-opacity:1;stroke-dasharray:none;fill:#3893d1"/>
<path d="m 494.74863,368.23823 -0.89297,0.96528 -3.97527,0 -1.11805,-0.62113 -1.61495,-0.24846 -5.21755,1.49073 -1.3665,-0.62114 -1.98764,3.22991 -0.84724,0.59787 -0.8636,-1.91189 -0.87843,-2.98663 -2.63525,-2.45957 0.87841,-5.79758 -0.52705,-0.70273 -1.40547,0.17568 -6.32463,0.52705 -18.62251,0.52706 -0.35137,-1.22979 0.52705,-6.14895 2.63527,-4.74347 4.04073,-7.02736 -0.70273,-1.58116 0.87841,0 0.52706,-2.45957 -1.75685,-1.40547 0.17569,-1.40548 -1.58115,-3.51368 -0.21961,-4.10661 1.05409,-2.04233 -0.30744,-3.338 -1.0541,-2.2839 1.0541,-1.0541 -1.0541,-1.58115 0.35137,-1.40548 0.70273,-4.74347 2.28389,-2.1082 -0.52704,-1.58116 2.81094,-4.04074 2.10821,-0.70273 0,-1.93253 -0.52705,-1.0541 2.10821,-4.04073 2.1082,-0.87843 0.0826,-2.62199 6.66661,-0.0595 18.5099,-1.49073 4.21752,-0.17568 0.006,4.89632 0.12423,12.79543 -0.62114,23.85167 -0.12423,10.80779 2.11188,14.41039 1.14065,11.83045 z" id="MS" style="stroke:#ffffff;stroke-width:0.5;stroke-miterlimit:4;stroke-opacity:1;stroke-dasharray:none;fill:#357eb1"/>
<path d="m 288.81012,103.72823 0.62113,-8.93857 1.73553,-19.170877 1.0541,-11.595157 0.96879,-10.935492 -24.55809,-2.527622 -22.48514,-2.733 -22.48514,-3.105682 -24.84546,-4.099501 -14.16191,-2.608773 -25.14634,-5.327431 -3.44189,16.404419 2.63526,5.79757 -1.0541,3.513681 1.40547,3.51368 2.45958,1.054107 2.81094,7.905785 2.81095,2.81094 0.35136,0.878424 2.63527,0.878424 0.35137,1.581149 -5.44621,13.52768 0,1.932526 1.93253,2.45957 0.70273,0 3.68936,-2.28389 0.52706,-0.878423 1.22979,0.527053 -0.17569,4.04073 2.10821,9.66263 2.28389,1.93252 0.70274,0.52705 1.40547,1.75684 -0.35137,2.63527 0.52705,2.63525 0.87843,0.70274 1.75684,-1.75684 2.1082,0 2.45959,1.2298 1.93252,-0.70275 3.16231,0 2.81094,1.22979 2.10822,-0.35136 0.35136,-2.2839 2.28389,-0.52705 1.05411,1.05411 0.35137,2.45957 1.98398,1.91213 1.17833,-8.76381 15.28451,2.28389 21.78483,3.16232 12.47357,1.58115 24.65788,2.53236 8.81528,0.92453 1.30166,-12.22497 0.46494,-4.23259 z" id="MT" style="stroke:#ffffff;stroke-width:0.5;stroke-miterlimit:4;stroke-opacity:1;stroke-dasharray:none;fill:#a0a0a0"/>
<path d="m 653.54019,238.75683 1.31404,3.61062 2.733,4.96909 1.86341,1.86341 0.49691,1.73918 -1.86341,0.12423 0.62113,0.49691 -0.24845,3.22991 -1.98764,0.99382 -0.49691,1.61495 -0.99381,2.23609 -2.85723,1.24228 -1.86341,-0.24846 -1.11805,-0.12423 -1.24227,-0.99381 0.24845,0.99381 0,0.74537 1.49073,0 0.62114,0.99382 -1.49073,4.84486 3.22991,0 0.49691,1.24227 1.73918,-1.73918 0.99382,-0.37268 -1.49073,2.733 -2.36032,3.72682 -0.99381,0 -0.8696,-0.37268 -2.11186,0.49691 -3.97527,1.8634 -4.96909,4.09951 -2.60878,3.60259 -1.49073,4.96909 -0.37268,1.86341 -3.60259,0.37268 -4.53004,1.70636 -7.64328,-6.30319 -9.68974,-5.83869 -2.23609,-0.62115 -9.68975,1.11806 -3.35414,0.37268 -1.24228,-2.48455 -1.73918,-1.49073 -12.67121,0.37268 -5.59023,0.62114 -6.95674,3.47837 -4.72064,1.98763 -1.24228,0.24846 -4.47219,0.74536 -5.34178,0.62114 -5.21755,0.37269 0.24845,-3.72683 1.3665,-1.11804 2.11187,-0.49691 0.49691,-2.85724 3.22992,-2.11186 2.98146,-1.11806 3.22991,-2.733 3.35414,-1.61495 0.49691,-2.36033 2.98146,-2.98145 0.49691,-0.12423 c 0,0 0,0.86959 0.62114,0.86959 0.62113,0 1.49073,0.24846 1.49073,0.24846 l 1.73919,-2.73301 1.61495,-0.49691 1.73918,0.24845 1.24228,-2.733 2.23609,-1.98764 0.37269,-1.61496 0,-3.04357 3.47837,0.55903 5.4837,-0.99383 12.1566,-1.49073 13.16811,-1.98763 15.83197,-2.89985 14.72799,-2.93884 8.82015,-2.2361 3.77828,-1.24981 z m 2.99345,25.34935 1.98764,-1.92554 2.42244,-1.98764 1.18016,-0.49691 0.12423,-1.55285 -0.49691,-4.72065 -1.11805,-1.8013 -0.49691,-1.42862 0.55902,-0.18634 2.11188,4.22374 0.31057,3.41626 -0.12423,2.60878 -2.60878,1.18017 -2.17399,1.86341 -0.86959,0.93171 -0.80748,-0.12422 z" id="NC" style="stroke:#ffffff;stroke-width:0.5;stroke-miterlimit:4;stroke-opacity:1;stroke-dasharray:none;fill:#2f5370"/>
<path d="m 376.90061,108.12033 -0.52705,-6.50031 -1.40547,-5.62189 -1.40547,-10.365355 -0.35137,-7.554419 -1.40547,-2.635264 -1.22979,-3.865047 0,-7.905785 0.52705,-2.986631 -1.50221,-4.225692 -22.58183,-0.433424 -14.28614,-0.496909 -20.37327,-0.993818 -19.16992,-1.447652 -0.96879,10.935492 -1.0541,11.595157 -1.73553,19.170877 -0.49691,9.33166 43.16683,2.76923 44.79944,1.22978 z" id="ND" style="stroke:#ffffff;stroke-width:0.5;stroke-miterlimit:4;stroke-opacity:1;stroke-dasharray:none;fill:#a0a0a0"/>
<path d="m 387.09029,198.94901 1.05411,1.93252 -0.17569,1.75684 1.93253,2.98663 2.45957,3.16231 -4.74347,0 -33.90725,-0.35137 -31.09586,-1.0541 -16.77783,-0.61489 1.31763,-17.1292 -25.64987,-2.10821 3.338,-33.81918 11.94651,0.79057 15.4602,0.87842 13.70336,0.87842 18.27114,0.87842 8.25716,-0.35137 1.58115,1.75684 3.68937,2.2839 0.87842,0.70273 3.338,-1.0541 2.98663,-0.35137 2.10821,-0.17568 1.40547,1.05411 3.86505,1.22979 2.28389,1.22978 0.35137,1.22979 0.70273,1.58116 1.40548,0 1.22979,-0.0879 0.87841,4.12858 2.10822,5.79757 0.70273,3.68937 1.75684,2.81095 0.52705,4.04073 1.22979,3.16231 0.17569,5.09485 1.4889,4.22707" id="NE" style="stroke:#ffffff;stroke-width:0.5;stroke-miterlimit:4;stroke-opacity:1;stroke-dasharray:none;fill:#a0a0a0"/>
<path d="m 691.39372,119.19196 0.23179,-1.17603 0.83777,-2.52897 -1.95422,-0.70196 -0.37269,-2.36032 -2.98146,-0.86959 -0.24845,-2.11188 -5.59025,-18.012992 -3.53594,-11.175495 -0.68936,-0.004 -0.49691,1.242273 -0.49691,-0.372682 -0.74536,-0.745363 -1.11804,1.490727 -0.73484,4.215658 0.23948,4.354952 1.49073,2.111872 0,3.10569 -2.85723,3.10569 -1.98764,0.8696 0,0.86959 0.86959,1.3665 0,6.58406 -0.62114,7.08097 -0.12422,3.72683 0.74536,0.99382 -0.12423,3.47837 -0.37268,1.36651 1.11805,1.55283 13.29235,-3.1678 1.73919,-0.49691 1.61495,-2.48454 2.87231,-1.30752 z" id="NH" style="stroke:#ffffff;stroke-width:0.5;stroke-miterlimit:4;stroke-opacity:1;stroke-dasharray:none;fill:#a0a0a0"/>
<path d="m 650.50778,155.65587 -1.61496,1.86342 0,2.36032 -1.49073,2.36032 -0.12423,1.24228 0.99382,0.99382 -0.12422,1.86342 -1.73919,0.86959 0.62113,2.11186 0.12423,0.8696 2.11187,0.24846 0.74537,1.98763 2.733,1.86342 1.86341,1.24227 0,0.62114 -2.48454,2.36033 -1.24228,1.73918 -1.11805,2.11187 -1.73918,0.99382 -0.93171,0.55903 -0.18634,0.9317 -0.46816,2.00315 0.83934,1.72453 2.48455,2.23609 3.72682,1.73919 3.10568,0.4969 0.12423,1.11805 -0.62114,0.74536 0.24846,2.11187 0.62113,0 1.61496,-1.86341 0.62113,-3.72682 2.11187,-3.10568 2.36032,-4.96909 0.86959,-4.22373 -0.49691,-0.86959 -0.12423,-7.20519 -1.24227,-2.60877 -0.86959,0.62114 -2.11187,0.24845 -0.37268,-0.37268 0.86959,-0.74536 1.61496,-1.49073 0.0485,-0.84055 -0.29538,-2.63872 0.37268,-2.11187 -0.12423,-1.61496 -1.98763,-0.8696 -3.47838,-0.74536 -2.98146,-0.86959 -2.85723,-1.36651 z" id="NJ" style="stroke:#ffffff;stroke-width:0.5;stroke-miterlimit:4;stroke-opacity:1;stroke-dasharray:none;fill:#2c3e50"/>
<path d="m 232.23297,340.75546 -0.62312,-3.71874 6.149,0.52707 22.31181,2.10819 22.31188,1.22979 1.75684,-18.27114 2.98661,-42.69102 1.22981,-14.4063 1.05411,0.0219 -0.011,-9.00381 -25.36324,-1.84662 -28.3851,-3.40194 -26.48437,-3.16232 -3.22755,23.63575 -5.35212,40.88294 -2.88372,20.68808 -1.57484,10.22751 11.88068,1.52855 0.99382,-7.70209 12.79541,1.98764 10.43508,1.3665 z" id="NM" style="stroke:#ffffff;stroke-width:0.5;stroke-miterlimit:4;stroke-opacity:1;stroke-dasharray:none;fill:#a0a0a0"/>
<path d="m 122.19944,145.85176 16.12213,3.46663 7.46658,1.49332 7.1152,1.40547 6.19286,1.62507 -0.92234,4.26035 -2.72311,13.43982 -2.89878,15.72373 -1.49331,6.85167 -1.66901,10.4532 -2.54741,12.73709 -2.45958,11.68299 -1.5126,8.06969 -2.26461,13.62729 -0.35136,0.35136 -1.31763,2.02037 -1.93252,-0.0878 -0.96627,-2.10821 -2.1082,-0.26353 -0.70274,-0.87841 -0.70274,0 -0.70274,0.43921 -1.49331,0.79058 -0.0878,5.35835 -0.17569,1.31763 -0.4392,9.66263 -1.13928,1.68719 -1.9352,-2.47777 -11.15593,-17.48056 -14.93314,-22.31187 -17.480559,-26.00124 -9.514511,-14.27929 1.257357,-5.04595 5.358368,-19.94014 6.0611,-24.08912 25.825555,6.25718 10.54104,2.28389" id="NV" style="stroke:#ffffff;stroke-width:0.5;stroke-miterlimit:4;stroke-opacity:1;stroke-dasharray:none;fill:#a0a0a0"/>
<path d="m 650.50778,155.65587 -0.8696,-0.74536 -1.98764,-0.12423 -1.73918,-1.49073 -1.86342,-4.09951 -2.30885,-0.71521 -1.79066,-1.64511 -14.28617,3.10569 -33.04453,6.70829 -6.83252,1.11804 -0.56723,-5.31936 2.0566,-1.38799 0.99382,-0.86959 0.74536,-1.24227 1.3665,-0.86959 1.49073,-1.3665 0.37268,-1.24228 1.61496,-2.11186 0.86959,-0.74537 -0.12423,-0.74536 -0.99382,-2.36032 -1.3665,-0.12422 -1.49072,-4.72064 2.23609,-1.3665 3.35413,-1.11805 3.10569,-0.99382 2.48454,-0.37268 4.84487,-0.12423 1.49072,0.99382 1.24228,0.12423 1.61495,-0.99382 1.98764,-0.86959 3.97527,-0.37268 1.61496,-1.3665 1.3665,-2.48455 1.24227,-1.49072 1.61495,0 1.49073,-0.8696 0.12423,-1.73918 -1.11805,-1.61495 -0.24845,-1.11805 0.86959,-1.61495 0,-1.11805 -1.3665,0 -1.3665,-0.62113 -0.62114,-0.8696 -0.12422,-1.98763 4.47218,-4.22373 0.49691,-0.62114 1.11804,-2.23609 2.23609,-3.47836 2.11187,-2.85723 1.61495,-1.86341 1.85588,-1.40288 2.36785,-0.95744 4.22373,-0.99382 2.48454,0.12423 3.47837,-1.11804 5.81344,-1.591584 0.39943,3.826604 1.86342,4.96911 0.62114,3.97528 -0.74537,2.98146 1.98764,3.47838 0.62114,1.61495 -0.62114,2.2361 2.2361,0.99382 0.49691,0.24845 2.36033,8.44748 0.37268,3.97528 -0.37268,8.32325 0.62113,4.22373 0.62114,2.73301 1.11804,5.59025 0,6.21137 -0.86959,1.73919 1.41343,1.53135 -0.17269,1.20257 -1.49073,1.3665 0.24846,0.99382 0.99382,-0.24846 1.11804,-0.99381 1.73918,-1.98764 0.8696,-0.49691 1.24227,0.49691 1.73918,0.12423 6.08714,-2.98146 2.23609,-2.11186 0.99382,-1.11805 3.22991,1.24228 -2.60878,2.733 -2.98145,2.23609 -5.466,4.0995 -1.98764,0.74536 -4.47218,1.49073 -3.10568,0.86959 -1.16432,-0.40952 -0.44911,-2.57284 0.37268,-2.11187 -0.12423,-1.61496 -1.98763,-0.8696 -3.47838,-0.74536 -2.98146,-0.86959 -2.85723,-1.36651 z" id="NY" style="stroke:#ffffff;stroke-width:0.5;stroke-miterlimit:4;stroke-opacity:1;stroke-dasharray:none;fill:#3893d1"/>
<path d="m 576.96506,159.16309 -5.46734,3.20198 -2.98146,1.73919 -2.60877,2.85722 -3.10568,2.98146 -2.48455,0.62114 -2.23609,0.37268 -4.22373,1.98763 -1.61495,0.12423 -2.60878,-2.36032 -3.97527,0.49691 -1.98764,-1.11804 -1.82972,-1.03804 -3.75967,0.54053 -7.82633,1.24227 -5.96292,0.93171 0.99382,11.24258 1.3665,10.55934 1.98764,18.01299 0.4348,4.41008 3.1678,-0.18635 1.86341,-0.62113 2.2361,1.24227 1.24227,3.35414 4.47219,0.24845 1.3665,1.36651 1.61496,0.12423 1.86341,-1.11805 2.36032,0.37268 0.99382,1.11805 2.11187,-1.98765 1.3665,-0.99381 1.24227,0 0.49691,2.11187 1.36651,0.74536 2.67088,1.80129 1.67708,-0.0621 1.49073,-0.62114 0.12423,-2.11186 1.24227,-1.11805 0.12423,-3.85105 0.74536,-2.98146 0.99382,-0.49691 0.99382,0.86959 0.37269,1.3665 1.3665,-0.74536 0.37268,-1.24228 -0.86959,-1.3665 0,-1.86341 0.74537,-0.99382 1.73918,-2.60878 0.99382,-1.11804 1.61496,0.37268 1.73918,-1.24228 2.36032,-2.60877 1.73919,-2.98147 0.24845,-4.34795 0.37269,-3.85106 0,-3.6026 -0.8696,-2.36031 0.74537,-1.11806 1.05616,-0.55916 -1.4284,-8.26128 -2.23609,-14.87846 z" id="OH" style="stroke:#ffffff;stroke-width:0.5;stroke-miterlimit:4;stroke-opacity:1;stroke-dasharray:none;fill:#a0a0a0"/>
<path d="m 302.54232,257.27612 -8.21326,-0.35133 -4.94111,-0.37333 0.19764,0.15372 -0.41723,8.87204 16.75588,0.83447 23.89304,0.87843 -1.05411,18.27114 -0.35137,13.70335 0.17569,1.22979 3.338,2.81095 1.58115,0.87842 0.52706,-0.17569 0.52705,-1.58115 1.05411,1.40547 1.58115,0 0,-1.05411 2.10821,1.05411 -0.35137,2.98663 3.16232,0.17569 1.93252,0.87842 3.16232,0.52705 1.93252,1.40547 1.75684,-1.58115 2.63526,0.52705 1.93253,2.63526 0.70273,0 0,1.75684 1.75684,0.52705 1.75684,-1.75684 1.40547,0.52705 1.93253,0 0.70274,1.93253 3.68936,1.40547 1.05411,-0.52705 1.40547,-3.16232 0.87842,0 0.87842,1.58116 3.16232,0.52705 2.81094,1.05411 2.2839,0.70274 1.40547,-0.70274 0.52705,-1.93253 3.338,0 1.58115,0.70274 2.10821,-1.58116 0.87842,0 0.52705,1.22979 3.16232,0 1.22979,-1.58116 1.40547,0.35137 1.58116,1.93253 2.45957,1.40547 2.45958,0.70274 2.10821,1.22979 -0.17568,-29.33916 -1.05412,-8.43291 10e-6,-6.32464 -1.22979,-5.27053 -0.35137,-5.27052 -0.17568,-3.42583 -10.18972,0.61489 -35.6636,-0.35136 -34.60996,-1.58118 -18.66647,-1.05409 z" id="OK" style="stroke:#ffffff;stroke-width:0.5;stroke-miterlimit:4;stroke-opacity:1;stroke-dasharray:none;fill:#a0a0a0"/>
<path d="m 122.42217,145.54119 3.42584,-13.87904 3.338,-13.61551 1.0541,-3.25016 1.93253,-4.56778 -0.96626,-1.75684 -1.93254,0.0878 -0.61488,-0.79058 0.35136,-0.87841 0.26352,-2.37174 3.42585,-4.21642 1.40547,-0.35137 0.87842,-0.87841 0.43921,-2.45958 0.70273,-0.52705 2.98663,-4.479945 2.98663,-3.337997 0.17569,-2.898785 -2.63527,-2.020369 -0.80564,-3.219089 -10.7895,-2.754165 -11.59515,-2.723102 -11.85867,0.08784 -0.35136,-1.0541 -4.21643,1.581157 -3.42583,-0.439212 -1.844685,-1.22979 -0.966262,0.527057 -3.601518,-0.175691 -1.317628,-1.054099 -4.040739,-1.581157 -0.614895,0.08785 -3.337997,-1.141953 -1.493314,1.405474 -4.743471,-0.263521 -4.567781,-3.162314 0.527049,-0.614895 0.175684,-5.973261 -1.756841,-2.986623 -3.162314,-0.439212 -0.527049,-1.932524 -1.808869,-0.35853 -4.455852,1.582064 -1.739182,4.969091 -2.484546,7.702092 -2.484546,4.969092 -3.851046,10.807774 -4.969091,10.435093 -6.211365,9.68973 -1.490727,2.23609 -0.621137,6.58405 -0.993818,4.59641 1.711145,3.45054 5.418168,1.85326 8.784201,2.28389 5.797573,1.58116 9.66262,3.16231 10.36536,2.63527 10.365361,2.98662 m 35.880332,8.39205 -36.056015,-8.50029 25.825555,6.25718 10.54104,2.28389" id="OR" style="stroke:#ffffff;stroke-width:0.5;stroke-miterlimit:4;stroke-opacity:1;stroke-dasharray:none;fill:#a0a0a0"/>
<path d="m 647.15363,183.85553 0.8696,-0.49691 1.73918,-0.99382 1.11805,-2.11187 1.24228,-1.73918 2.48454,-2.36033 0,-0.62114 -1.86341,-1.24227 -2.733,-1.86342 -0.74537,-1.98763 -2.11187,-0.24846 -0.12423,-0.8696 -0.62113,-2.11186 1.73919,-0.86959 0.12422,-1.86342 -0.99382,-0.99382 0.12423,-1.24228 1.49073,-2.36032 0,-2.36032 1.8013,-1.86341 -1.05594,-0.74537 -1.98764,-0.12423 -1.73918,-1.49073 -1.86342,-4.09951 -2.30885,-0.71521 -1.79066,-1.64511 -14.28617,3.10569 -33.04453,6.70829 -6.83252,1.11804 -0.38089,-5.44359 -4.21688,4.32647 -0.99381,0.37268 -3.22924,2.31217 2.23676,14.70609 1.29663,8.26127 2.74473,14.80141 3.55868,-0.57722 9.17799,-1.15457 29.14456,-5.89029 11.43156,-2.16957 6.37836,-1.24669 0.99005,-0.96809 1.61497,-1.24228 1.61495,0 z" id="PA" style="stroke:#ffffff;stroke-width:0.5;stroke-miterlimit:4;stroke-opacity:1;stroke-dasharray:none;fill:#3893d1"/>
<path d="m 685.78685,147.58201 -0.37113,-3.23085 -0.62113,-3.35414 -1.30439,-4.5343 4.41008,-1.18017 1.24227,0.8696 2.60878,3.35414 2.23531,3.41673 -2.23691,1.18064 -0.99382,-0.12423 -0.86959,1.36651 -1.86341,1.49072 -2.23606,0.74535 z" id="RI" style="stroke:#ffffff;stroke-width:0.5;stroke-miterlimit:4;stroke-opacity:1;stroke-dasharray:none;fill:#a0a0a0"/>
<path d="m 599.07617,326.71778 -1.36557,0.74501 -1.98764,-0.99383 -0.49691,-1.61496 -0.99382,-2.733 -1.73919,-1.61496 -1.98763,-0.49691 -1.24228,-3.72682 -2.11187,-4.59641 -3.22991,-1.49074 -1.61496,-1.49073 -0.99382,-1.98763 -1.61495,-1.49074 -1.73919,-0.99382 -1.73919,-2.23609 -2.36032,-1.73918 -3.47837,-1.36651 -0.37268,-1.11804 -1.86341,-2.2361 -0.37268,-1.11805 -2.60878,-3.97527 -2.60877,0.12422 -3.10569,-1.86341 -0.99382,-0.99382 -0.24846,-1.3665 0.62114,-1.49073 1.73918,-0.74537 -0.24845,-1.61496 4.72064,-1.98763 6.95674,-3.47837 5.59023,-0.62114 12.67121,-0.37268 1.73918,1.49073 1.24228,2.48455 3.35414,-0.37268 9.68975,-1.11806 2.23609,0.62115 9.68974,5.83869 7.76751,6.24107 -4.16587,4.19444 -1.98764,4.72064 -0.37268,4.84486 -1.24227,0.62114 -0.86959,2.11186 -1.86341,0.49691 -1.61496,2.733 -2.11186,2.11187 -1.73918,2.60877 -1.24228,0.62114 -2.733,2.60877 -2.23609,0.12423 0.74537,2.48454 -3.85105,4.22373 -1.61496,0.99382 z" id="SC" style="stroke:#ffffff;stroke-width:0.5;stroke-miterlimit:4;stroke-opacity:1;stroke-dasharray:none;fill:#326890"/>
<path d="m 378.04696,166.14754 -0.73286,-1.5705 -1.29191,-2.17032 1.40547,-3.338 1.05411,-4.3921 -2.10821,-1.58116 -0.35137,-2.10821 0.70274,-1.93253 1.40547,0 0.35137,-5.27052 -0.17568,-23.36598 -0.35137,-2.28389 -3.16231,-2.63526 -0.87843,-1.40548 0,-1.22979 1.58116,-1.22978 1.05411,-1.05411 0.26353,-2.45958 -44.71161,-1.22978 -43.16683,-2.98663 -0.58916,4.0569 -1.23952,12.19388 -1.03372,13.79119 -1.22978,19.76447 11.94651,0.79057 15.4602,0.87842 13.70336,0.87842 18.27114,0.87842 8.25716,-0.35137 1.58115,1.75684 3.68937,2.2839 0.87842,0.70273 3.338,-1.0541 2.98663,-0.35137 2.10821,-0.17568 1.40547,1.05411 3.86505,1.22979 2.28389,1.22978 0.35137,1.22979 0.70273,1.58116 1.40548,0 0.97066,-0.12423 z" id="SD" style="stroke:#ffffff;stroke-width:0.5;stroke-miterlimit:4;stroke-opacity:1;stroke-dasharray:none;fill:#a0a0a0"/>
<path d="m 549.75879,255.78353 -39.87702,3.85105 -12.11036,1.3665 -3.55115,0.39399 -2.97261,-0.0213 0,2.98147 -6.45983,0.37268 -5.34178,0.49691 -8.52669,0.0406 -0.20344,4.48422 -1.64307,4.82241 -0.76466,2.31764 -1.03643,3.3666 -0.24845,1.98764 -3.10569,1.73918 1.11804,2.73301 -0.74536,3.35414 -1.18014,1.30439 6.27346,-0.0621 18.5099,-1.49073 4.09954,-0.12422 6.21134,-0.37269 21.36713,-1.98764 7.81567,-0.62114 6.47048,-0.74536 6.45983,-0.86959 3.72683,-0.62114 0.24845,-3.72683 1.3665,-1.11804 2.11187,-0.49691 0.49691,-2.85724 3.22992,-2.11186 2.98146,-1.11805 3.22991,-2.733 3.35414,-1.61496 0.49691,-2.36032 2.98146,-2.98146 0.49691,-0.12423 c 0,0 0,0.86959 0.62114,0.86959 0.62113,0 1.49073,0.24846 1.49073,0.24846 l 1.73919,-2.73301 1.61495,-0.49691 1.73918,0.24846 1.24228,-2.733 2.23609,-1.98765 0.37269,-1.61495 0.13553,-3.02163 -1.75049,0.0401 -1.86341,1.49074 -6.08715,0.12423 -9.21776,1.46057 -7.55295,0.65129 z" id="TN" style="stroke:#ffffff;stroke-width:0.5;stroke-miterlimit:4;stroke-opacity:1;stroke-dasharray:none;fill:#326890"/>
<path d="m 288.48759,265.5772 17.43665,0.83449 23.89304,0.87843 -1.05411,18.27114 -0.35137,13.70335 0.17569,1.22979 3.338,2.81095 1.58115,0.87842 0.52706,-0.17569 0.52705,-1.58115 1.05411,1.40547 1.58115,0 0,-1.05411 2.10821,1.05411 -0.35137,2.98663 3.16232,0.17569 1.93252,0.87842 3.16232,0.52705 1.93252,1.40547 1.75684,-1.58115 2.63526,0.52705 1.93253,2.63526 0.70273,0 0,1.75684 1.75684,0.52705 1.75684,-1.75684 1.40547,0.52705 1.93253,0 0.70274,1.93253 3.68936,1.40547 1.05411,-0.52705 1.40547,-3.16232 0.87842,0 0.87842,1.58116 3.16232,0.52705 2.81094,1.05411 2.2839,0.70274 1.40547,-0.70274 0.52705,-1.93253 3.338,0 1.58115,0.70274 2.10821,-1.58116 0.87842,0 0.52705,1.22979 3.16232,0 1.22979,-1.58116 1.40547,0.35137 1.58116,1.93253 2.45957,1.40547 2.45958,0.70274 2.10821,0.96626 1.75684,1.49331 2.28389,-1.0541 2.10821,0.87842 0.51607,8.53166 0.011,7.45559 0.52705,7.20304 0.52705,2.98664 1.93253,3.16231 0.70273,3.86505 3.338,4.21642 0.17568,2.45958 0.52706,0.52705 -0.52706,6.50031 -2.28389,3.86505 1.22979,1.58115 -0.52706,1.93253 -0.52705,5.62189 -1.0541,2.45958 0.21768,2.75399 -4.96973,1.34144 -7.57787,3.47837 -0.74536,1.49072 -1.98764,1.49073 -1.61495,1.11805 -0.99382,0.62113 -4.34796,4.09951 -2.11186,1.61495 -4.0995,2.48455 -4.34796,1.86341 -4.84486,2.60877 -1.3665,1.11804 -4.47218,2.733 -2.60878,0.49691 -2.98145,4.22373 -3.10568,0.24846 -0.74537,1.49072 1.73918,1.49073 -1.11804,4.22373 -0.99382,3.47836 -0.86959,2.98146 -0.62114,3.47836 0.62114,1.86341 1.3665,5.34177 0.74536,4.72064 1.3665,2.11187 -0.74536,1.11804 -2.36032,1.49073 -4.34795,-2.98146 -4.22373,-0.86959 -0.99382,0.37268 -2.48455,-0.4969 -3.22991,-2.36032 -3.97527,-0.86959 -5.83868,-2.60878 -1.61496,-2.98145 -0.99381,-4.96909 -2.48455,-1.49073 -0.49691,-1.73918 0.49691,-0.49691 0.24845,-2.60878 -0.99381,-0.4969 -0.49691,-0.74537 0.99382,-3.35414 -1.24228,-1.73918 -2.48454,-0.99382 -2.60878,-3.35413 -2.733,-5.09332 -3.22991,-1.98764 0.12423,-1.49073 -4.0995,-9.44127 -0.62114,-3.22991 -1.3665,-1.49073 -0.12422,-1.11804 -4.59641,-4.0995 -1.98764,-2.36032 0,-0.86959 -1.98764,-1.61496 -5.21754,-0.86959 -5.71446,-0.49691 -2.36032,-1.73918 -3.47836,1.3665 -2.733,1.11805 -1.73918,2.48454 -0.74537,2.85723 -3.35413,4.72064 -1.86341,1.86341 -1.98764,-0.74537 -1.3665,-0.86959 -1.49073,-0.49691 -2.98145,-1.73918 0,-0.49691 -1.3665,-1.49073 -3.97528,-1.61495 -5.71445,-5.96291 -1.73918,-3.60259 0,-6.21137 -2.48455,-4.96909 -0.37268,-2.11186 -1.24227,-0.74537 -0.8696,-1.61495 -3.85104,-1.61496 -0.99382,-1.24227 -5.466,-6.08714 -0.99382,-2.48454 -3.6026,-1.73919 -1.11804,-3.35416 -1.98766,-2.23609 -1.49072,-0.37265 -0.49889,-3.59452 6.149,0.52707 22.31182,2.10819 22.31188,1.22979 1.75684,-18.27114 2.9866,-42.69102 1.22981,-14.4063 1.05411,0.0219 m 76.05818,179.79914 -0.43479,-5.46602 -2.11188,-5.52813 -0.43479,-5.40391 1.18016,-6.33561 2.54667,-5.27968 2.67089,-4.16163 2.42244,-2.73301 0.49691,0.18635 -3.66471,5.09333 -3.35415,5.03123 -1.55285,5.09333 -0.24846,3.97529 0.68326,4.72065 1.98764,5.52814 0.37268,3.97528 0.12423,1.11805 -0.68325,0.18634 z" id="TX" style="stroke:#ffffff;stroke-width:0.5;stroke-miterlimit:4;stroke-opacity:1;stroke-dasharray:none;fill:#3ca9f2"/>
<path d="m 209.12229,248.31627 -19.67662,-3.16231 -20.9064,-3.51368 -25.74738,-4.74933 1.59078,-7.89985 2.45958,-11.68299 2.54741,-12.73709 1.66901,-10.4532 1.49331,-6.85167 2.89878,-15.72373 2.72311,-13.43982 0.85646,-4.2823 9.77242,1.73488 9.22342,1.58115 7.90577,1.40548 6.41247,1.0541 3.68939,0.61485 -1.26431,8.1689 -1.28308,9.13593 5.01324,0.7134 12.97747,1.75684 7.0496,0.90414 -2.37707,17.00498 -2.45957,17.21703 -2.88372,21.50623 -1.15702,8.53575 -0.52705,3.16231 z" id="UT" style="stroke:#ffffff;stroke-width:0.5;stroke-miterlimit:4;stroke-opacity:1;stroke-dasharray:none;fill:#a0a0a0"/>
<path d="m 569.63519,237.77055 1.49073,2.733 0.99381,0.99382 2.2361,0.62114 1.98764,-0.49692 1.86342,-1.73918 c 0,0 1.3665,1.11805 1.86341,0.99382 0.49691,-0.12423 3.35414,-0.74537 3.35414,-0.74537 l 1.3665,-3.60259 1.98764,0.74537 2.48455,-1.86342 1.11805,0.24845 1.61495,-1.49072 0.12423,-2.11187 -0.62114,-0.99382 3.85106,-8.32324 1.61495,-5.09333 0.24846,-3.35414 1.3665,-0.12423 1.24228,2.11187 0.99382,0.62114 1.98763,0 0.86959,-4.22374 0.24846,-2.36031 2.60878,-0.24846 0.37268,-1.73919 2.36032,-1.86341 0.49692,-1.24227 1.24227,-2.11187 0.37268,-1.61496 0.12423,-4.09951 3.47836,1.3665 4.34797,2.36033 0.62113,-3.91316 3.22992,1.55283 0,2.2361 4.22374,0.99382 1.49072,0.99382 0.74537,-1.49073 1.73919,1.24227 -1.11806,2.48456 -0.24845,2.11186 -1.3665,1.98764 0,1.61496 0.49691,1.3665 3.89137,1.04178 1.44943,1.19485 3.97528,0.24845 1.98763,1.73918 2.48455,0.49691 0.99382,0.99382 -0.37269,3.47836 0.74537,0.74537 0.12423,1.73918 0.99381,1.61495 -0.12422,1.36651 -2.48455,-0.8696 0,0.74537 1.49073,1.24227 0,0.86959 1.11804,0.86959 0.99382,1.24228 0.12423,1.73918 -1.73918,1.11804 0.24845,0.37269 1.98764,-0.37269 2.48454,-0.49691 0.8696,-0.12422 3.13191,5.39987 -3.75205,1.30791 -8.82015,2.2361 -14.72799,2.93884 -15.83197,2.89985 -13.16811,1.98763 -12.1566,1.49073 -5.4837,0.99383 -3.46707,-0.47496 -1.62626,-0.0219 -1.86341,1.49073 -6.08715,0.12423 -9.21776,1.46057 -7.68341,0.71653 2.11811,-1.05905 4.34795,-2.60879 2.98146,-1.61495 0,-1.61496 1.3665,-1.3665 3.47838,-4.0995 3.22991,-2.73301 2.48455,-2.98146 z" id="VA" style="stroke:#ffffff;stroke-width:0.5;stroke-miterlimit:4;stroke-opacity:1;stroke-dasharray:none;fill:#2c3e50"/>
<path d="m 662.68208,128.57427 -0.62113,-4.34797 -2.36033,-8.44748 -0.49691,-0.24845 -2.2361,-0.99382 0.62114,-2.2361 -0.62114,-1.61495 -1.98764,-3.47838 0.74537,-2.98146 -0.62114,-3.97528 -1.86342,-4.96911 -0.61903,-3.782678 20.86735,-5.533842 0.24923,4.471649 1.49073,2.111871 0,3.10569 -2.85723,3.10568 -1.98764,0.8696 0,0.86959 0.86959,1.3665 0,6.58407 -0.62114,7.08097 -0.12422,3.72682 0.74536,0.99383 -0.12423,3.47836 -0.37268,1.36651 1.11805,1.55284 -5.34178,1.05594 -3.85106,0.8696 z" id="VT" style="stroke:#ffffff;stroke-width:0.5;stroke-miterlimit:4;stroke-opacity:1;stroke-dasharray:none;fill:#326890"/>
<path d="m 86.017464,14.286144 3.354137,1.118045 7.453637,2.111864 6.584042,1.490728 15.40419,4.347955 17.64027,4.347955 12.39002,2.855256 -0.77172,2.984683 -2.89879,10.36535 -3.42583,15.987245 -2.81095,12.649256 -0.14683,7.453709 -10.74558,-2.6224 -11.59515,-2.723102 -11.85867,0.08784 -0.35136,-1.0541 -4.21642,1.581157 -3.42584,-0.439212 -1.844685,-1.22979 -0.966262,0.527057 -3.601518,-0.175691 -1.317628,-1.054099 -4.040739,-1.581157 -0.614895,0.08785 -3.337997,-1.141953 -1.493314,1.405474 -4.743471,-0.263521 -4.567781,-3.162314 0.527049,-0.614895 0.175684,-5.973261 -1.756841,-2.986623 -3.162314,-0.439212 -0.527049,-1.932524 -1.808869,-0.35853 -1.474397,-1.150937 -1.3665,0.745364 -1.739182,-2.236091 0.248454,-2.236091 2.111864,-0.248455 1.242273,-3.105682 -1.987637,-0.869591 0.124228,-2.857228 3.354137,-0.496909 -2.111864,-2.111864 -1.118046,-5.466001 0.496909,-2.236091 0,-6.087137 -1.3665,-2.484546 1.739182,-7.205183 1.614955,0.372682 1.863409,2.236091 2.111864,1.987637 2.484546,1.490727 3.478364,1.614955 2.36032,0.496909 2.236091,1.118046 2.608776,0.745364 1.739182,-0.124228 0,-1.863409 0.993818,-0.869591 1.614955,-0.993819 0.248455,0.869592 0.248454,1.3665 -1.739182,0.372682 -0.248454,1.614954 1.3665,1.118046 0.869591,1.863409 0.496909,1.490728 1.118046,-0.124227 0.124227,-0.993819 -0.745364,-0.993818 -0.372682,-2.484546 0.621137,-1.3665 -0.496909,-1.118046 0,-1.739182 1.3665,-2.733 -0.869591,-1.987637 -1.86341,-3.726819 0.248455,-0.621136 0.869591,-0.621136 z m -7.266953,4.594509 1.552848,-0.124227 0.372681,1.055936 1.180164,-1.242281 1.801299,0 0.621137,1.180163 -1.180163,1.304391 0.496917,0.621144 -0.559027,1.552845 -1.055936,0.310564 c 0,0 -0.683254,0.06209 -0.683254,-0.186337 0,-0.248454 1.118053,-1.987644 1.118053,-1.987644 l -1.30439,-0.4348 -0.248455,1.118054 -0.559026,0.496909 -1.180166,-1.73919 -0.372682,-1.925527 z" id="WA" style="stroke:#ffffff;stroke-width:0.5;stroke-miterlimit:4;stroke-opacity:1;stroke-dasharray:none;fill:#3893d1"/>
<path d="m 485.29769,161.87966 0.11051,-3.2414 -1.24227,-3.47837 -0.49691,-4.72064 -0.86959,-1.86341 0.74536,-2.36031 0.62114,-2.2361 1.11805,-1.98763 -0.49691,-2.60877 -0.49691,-2.73301 0.37268,-1.3665 1.49073,-1.8634 0.12422,-2.11187 -0.62113,-0.99382 0.49691,-1.98763 0.37268,-2.48455 2.11186,-4.34795 2.23609,-5.21755 0.12423,-1.73918 -0.24845,-0.74537 -0.62114,0.37269 -3.22991,4.84486 -2.11186,3.10568 -1.49073,1.3665 -0.62114,1.73918 -1.11804,0.62114 -0.86959,1.49073 -1.11805,-0.24846 -0.12423,-1.3665 0.99382,-1.86341 1.61496,-3.60259 1.3665,-1.24227 0.8463,-1.76094 -1.25307,-0.69564 -1.05411,-1.0541 -1.22979,-7.90579 -2.81094,-0.87841 -1.0541,-1.75684 -9.66263,-2.10822 -1.93252,-0.87842 -6.32463,-1.75684 -6.32463,-0.87842 -3.20401,-4.1533 -0.40683,0.9691 -0.86959,-0.12423 -0.49691,-0.86959 -2.11187,-0.62114 -0.86959,0.12423 -1.3665,0.74536 -0.74536,-0.4969 0.49691,-1.49073 1.49072,-2.360321 0.8696,-0.869591 -1.49073,-1.118046 -1.61496,0.621137 -2.23609,1.490727 -5.71445,2.484544 -2.23609,0.49691 -2.2361,-0.37268 -0.7544,-0.67489 -1.62657,2.17868 -0.17568,2.10821 0,6.50031 -0.87843,1.22979 -4.04073,2.98662 -1.75684,4.56779 0.35137,0.17568 1.93252,1.58116 0.52705,2.45958 -1.40547,2.45957 0,2.98663 0.35137,5.09484 2.28389,2.2839 2.63527,0 1.40547,2.45957 2.63526,0.35137 2.98663,4.3921 5.4462,3.16232 1.58116,2.1082 0.70274,5.70975 0.52705,2.54741 1.75684,1.22979 0.17568,1.0541 -1.58115,2.63526 0.17568,2.45958 1.93253,2.98663 1.93252,0.87842 2.28389,0.35136 0.94431,1.93254 7.04934,-1e-5 20.46718,-1.22978 7.55441,-0.87843 z" id="WI" style="stroke:#ffffff;stroke-width:0.5;stroke-miterlimit:4;stroke-opacity:1;stroke-dasharray:none;fill:#a0a0a0"/>
<path d="m 596.35917,195.33621 0.85452,3.79959 0.74536,4.34796 0.24846,-0.24846 1.61496,-1.86341 1.73918,-2.36032 1.86341,-0.12423 1.11805,-1.11804 1.3665,-1.98764 0.99382,0.49691 2.23609,-0.24846 1.98765,-1.61495 1.54218,-1.11676 1.41797,-0.37268 1.26358,0.8683 2.23609,1.11805 1.49073,1.3665 1.05594,0.99382 -0.80748,3.85105 -4.34797,-2.36033 -3.47836,-1.3665 -0.12423,4.09951 -0.37268,1.61496 -1.24227,2.11187 -0.49692,1.24227 -2.36032,1.86341 -0.37268,1.73919 -2.60878,0.24846 -0.24846,2.36031 -0.86959,4.22374 -1.98763,0 -0.99382,-0.62114 -1.24228,-2.11187 -1.3665,0.12423 -0.24846,3.35414 -1.61495,5.09333 -3.85106,8.32324 0.62114,0.99382 -0.12423,2.11187 -1.61495,1.49072 -1.11805,-0.24845 -2.48455,1.86342 -1.98764,-0.74537 -1.3665,3.60259 c 0,0 -2.85723,0.62114 -3.35414,0.74537 -0.49691,0.12423 -1.86341,-0.99382 -1.86341,-0.99382 l -1.86342,1.73918 -1.98764,0.49692 -2.2361,-0.62114 -0.99381,-0.99382 -1.68461,-2.32329 -2.4149,-1.52776 -1.98764,-2.11187 -2.23609,-2.85723 -0.49691,-1.73919 -1.98764,-1.11804 -0.62114,-1.24228 -0.18635,-4.0374 1.67708,-0.0621 1.49073,-0.62114 0.12423,-2.11186 1.24227,-1.11805 0.12423,-3.85105 0.74536,-2.98146 0.99382,-0.49691 0.99382,0.86959 0.37269,1.3665 1.3665,-0.74536 0.37268,-1.24228 -0.86959,-1.3665 0,-1.86341 0.74537,-0.99382 1.73918,-2.60878 0.99382,-1.11804 1.61496,0.37268 1.73918,-1.24228 2.36032,-2.60877 1.73919,-2.98147 0.24845,-4.34795 0.37269,-3.85106 0,-3.6026 -0.8696,-2.36031 0.74537,-1.11806 0.98628,-0.99382 2.68284,15.23607 3.55868,-0.57722 9.55798,-1.19082 z" id="WV" style="stroke:#ffffff;stroke-width:0.5;stroke-miterlimit:4;stroke-opacity:1;stroke-dasharray:none;fill:#a0a0a0"/>
<path d="m 287.0746,120.00474 -8.84636,-0.74348 -24.65788,-2.53236 -12.47357,-1.58115 -21.78483,-3.16232 -15.28451,-2.28389 -1.09049,8.58812 -2.95024,18.64291 -4.04074,23.36598 -1.17649,8.08111 -1.28308,9.13593 5.01324,0.7134 12.97747,1.75684 6.78609,0.90412 15.80625,1.89612 28.63624,3.16229 18.79846,1.58118 3.338,-34.08271 1.22978,-19.50094 1.00266,-13.94115 z" id="WY" style="stroke:#ffffff;stroke-width:0.5;stroke-miterlimit:4;stroke-opacity:1;stroke-dasharray:none;fill:#a0a0a0"/>
</g>
<g transform="translate(694 333)">
<rect height="12.0" id="legendbox0" style="fill:#3ca9f2;stroke-width:0.5px;stroke:#303030;fill-rule:evenodd;stroke-linecap:butt;stroke-linejoin:miter;stroke-opacity:1" width="12.0" x="0" y="13.5"/>
<rect height="12.0" id="legendbox1" style="fill:#3893d1;stroke-width:0.5px;stroke:#303030;fill-rule:evenodd;stroke-linecap:butt;stroke-linejoin:miter;stroke-opacity:1" width="12.0" x="0" y="27.5"/>
<rect height="12.0" id="legendbox2" style="fill:#357eb1;stroke-width:0.5px;stroke:#303030;fill-rule:evenodd;stroke-linecap:butt;stroke-linejoin:miter;stroke-opacity:1" width="12.0" x="0" y="41.5"/>
<rect height="12.0" id="legendbox3" style="fill:#326890;stroke-width:0.5px;stroke:#303030;fill-rule:evenodd;stroke-linecap:butt;stroke-linejoin:miter;stroke-opacity:1" width="12.0" x="0" y="55.5"/>
<rect height="12.0" id="legendbox4" style="fill:#2f5370;stroke-width:0.5px;stroke:#303030;fill-rule:evenodd;stroke-linecap:butt;stroke-linejoin:miter;stroke-opacity:1" width="12.0" x="0" y="69.5"/>
<rect height="12.0" id="legendbox5" style="fill:#2c3e50;stroke-width:0.5px;stroke:#303030;fill-rule:evenodd;stroke-linecap:butt;stroke-linejoin:miter;stroke-opacity:1" width="12.0" x="0" y="83.5"/>
<text id="legendlabel0" style="stroke-opacity:1;letter-spacing:0px;stroke-linecap:butt;stroke-width:1px;stroke-linejoin:miter;font-style:normal;text-anchor:left;line-height:125%;font-size:12px;font-family:sans-serif;stroke:none;font-weight:normal;word-spacing:0px;fill-opacity:1;alignment-baseline:middle" x="16.0" y="22.5">
1936-1989</text>
<text id="legendlabel1" style="stroke-opacity:1;letter-spacing:0px;stroke-linecap:butt;stroke-width:1px;stroke-linejoin:miter;font-style:normal;text-anchor:left;line-height:125%;font-size:12px;font-family:sans-serif;stroke:none;font-weight:normal;word-spacing:0px;fill-opacity:1;alignment-baseline:middle" x="16.0" y="36.5">
1882-1936</text>
<text id="legendlabel2" style="stroke-opacity:1;letter-spacing:0px;stroke-linecap:butt;stroke-width:1px;stroke-linejoin:miter;font-style:normal;text-anchor:left;line-height:125%;font-size:12px;font-family:sans-serif;stroke:none;font-weight:normal;word-spacing:0px;fill-opacity:1;alignment-baseline:middle" x="16.0" y="50.5">
1828-1882</text>
<text id="legendlabel3" style="stroke-opacity:1;letter-spacing:0px;stroke-linecap:butt;stroke-width:1px;stroke-linejoin:miter;font-style:normal;text-anchor:left;line-height:125%;font-size:12px;font-family:sans-serif;stroke:none;font-weight:normal;word-spacing:0px;fill-opacity:1;alignment-baseline:middle" x="16.0" y="64.5">
1774-1828</text>
<text id="legendlabel4" style="stroke-opacity:1;letter-spacing:0px;stroke-linecap:butt;stroke-width:1px;stroke-linejoin:miter;font-style:normal;text-anchor:left;line-height:125%;font-size:12px;font-family:sans-serif;stroke:none;font-weight:normal;word-spacing:0px;fill-opacity:1;alignment-baseline:middle" x="16.0" y="78.5">
1720-1774</text>
<text id="legendlabel5" style="stroke-opacity:1;letter-spacing:0px;stroke-linecap:butt;stroke-width:1px;stroke-linejoin:miter;font-style:normal;text-anchor:left;line-height:125%;font-size:12px;font-family:sans-serif;stroke:none;font-weight:normal;word-spacing:0px;fill-opacity:1;alignment-baseline:middle" x="16.0" y="92.5">
1666-1720</text>
<text id="legendtitle" style="stroke-opacity:1;letter-spacing:0px;stroke-linecap:butt;stroke-width:1px;stroke-linejoin:miter;font-style:normal;text-anchor:left;line-height:125%;font-size:12px;font-family:sans-serif;stroke:none;font-weight:normal;word-spacing:0px;fill-opacity:1" x="0" y="0">
Avg Birth Year</text>
</g>
<text id="title" style="stroke-opacity:1;letter-spacing:0px;stroke-linecap:butt;stroke-width:1px;stroke-linejoin:miter;fill:#000000;font-style:normal;text-anchor:middle;line-height:125%;font-size:21px;font-family:sans-serif;stroke:none;font-weight:normal;word-spacing:0px;fill-opacity:1" x="489.5" y="45">
Migratory Patterns</text>
</svg>