<svg class="main-svg" xmlns="http://www.w3.org/2000/svg" xmlns:xlink="http://www.w3.org/1999/xlink" width="1000" height="500" style="" viewBox="0 0 1000 500"><rect x="0" y="0" width="1000" height="500" style="fill: rgb(255, 255, 255); fill-opacity: 1;"/><defs id="defs-4b4fd3"><g class="clips"><clipPath id="clip4b4fd3xyplot" class="plotclip"><rect width="890" height="347"/></clipPath><clipPath class="axesclip" id="clip4b4fd3x"><rect x="80" y="0" width="890" height="500"/></clipPath><clipPath class="axesclip" id="clip4b4fd3y"><rect x="0" y="100" width="1000" height="347"/></clipPath><clipPath class="axesclip" id="clip4b4fd3xy"><rect x="80" y="100" width="890" height="347"/></clipPath></g><g class="gradients"/><g class="patterns"/></defs><g class="bglayer"><rect class="bg" x="80" y="100" width="890" height="347" style="fill: rgb(229, 236, 246); fill-opacity: 1; stroke-width: 0;"/></g><g class="layer-below"><g class="imagelayer"/><g class="shapelayer"/></g><g class="cartesianlayer"><g class="subplot xy"><g class="layer-subplot"><g class="shapelayer"/><g class="imagelayer"/></g><g class="minor-gridlayer"><g class="x"/><g class="y"/></g><g class="gridlayer"><g class="x"><path class="xgrid crisp" transform="translate(224.26,0)" d="M0,100v347" style="stroke: rgb(255, 255, 255); stroke-opacity: 1; stroke-width: 1px;"/><path class="xgrid crisp" transform="translate(373.41,0)" d="M0,100v347" style="stroke: rgb(255, 255, 255); stroke-opacity: 1; stroke-width: 1px;"/><path class="xgrid crisp" transform="translate(522.55,0)" d="M0,100v347" style="stroke: rgb(255, 255, 255); stroke-opacity: 1; stroke-width: 1px;"/><path class="xgrid crisp" transform="translate(674.15,0)" d="M0,100v347" style="stroke: rgb(255, 255, 255); stroke-opacity: 1; stroke-width: 1px;"/><path class="xgrid crisp" transform="translate(823.3,0)" d="M0,100v347" style="stroke: rgb(255, 255, 255); stroke-opacity: 1; stroke-width: 1px;"/></g><g class="y"><path class="ygrid crisp" transform="translate(0,412.3)" d="M80,0h890" style="stroke: rgb(255, 255, 255); stroke-opacity: 1; stroke-width: 1px;"/><path class="ygrid crisp" transform="translate(0,342.9)" d="M80,0h890" style="stroke: rgb(255, 255, 255); stroke-opacity: 1; stroke-width: 1px;"/><path class="ygrid crisp" transform="translate(0,273.5)" d="M80,0h890" style="stroke: rgb(255, 255, 255); stroke-opacity: 1; stroke-width: 1px;"/><path class="ygrid crisp" transform="translate(0,204.1)" d="M80,0h890" style="stroke: rgb(255, 255, 255); stroke-opacity: 1; stroke-width: 1px;"/><path class="ygrid crisp" transform="translate(0,134.7)" d="M80,0h890" style="stroke: rgb(255, 255, 255); stroke-opacity: 1; stroke-width: 1px;"/></g></g><g class="zerolinelayer"/><path class="xlines-below"/><path class="ylines-below"/><g class="overlines-below"/><g class="xaxislayer-below"/><g class="yaxislayer-below"/><g class="overaxes-below"/><g class="plot" transform="translate(80,100)" clip-path="url(#clip4b4fd3xyplot)"><g class="scatterlayer mlayer"><g class="trace scatter traceb754ea" style="stroke-miterlimit: 2; opacity: 1;"><g class="fills"/><g class="errorbars"/><g class="lines"><path class="js-line" d="M66.02,168.79L68.46,166.97L70.91,169.37L73.35,172.1L75.8,167.88L80.69,167.22L83.13,170.61L85.58,173.83L88.02,175.15L90.47,175.32L92.91,171.68L95.36,173.09L97.8,168.96L100.25,167.39L102.69,167.06L105.14,164.99L107.58,160.94L110.03,161.6L112.47,157.64L114.92,160.45L117.36,159.79L119.81,162.18L122.25,162.1L132.03,168.71L134.48,168.21L136.92,172.1L139.37,171.85L141.81,169.95L144.26,170.28L146.7,172.67L149.15,172.26L151.59,171.43L154.04,169.45L161.37,172.59L163.82,174.16L166.26,173.58L168.71,175.23L171.15,173L173.6,172.76L176.04,176.06L178.49,175.07L180.93,179.12L183.38,178.7L185.82,178.29L188.27,174.49L190.71,171.6L193.16,166.64L198.05,160.36L200.49,158.38L207.83,156.32L210.27,154.5L212.72,155.24L215.16,153.75L220.05,152.35L222.5,152.76L224.95,153.51L227.39,150.86L232.28,154.17L234.73,154.25L237.17,152.51L239.62,152.18L242.06,154.99L244.51,153.67L246.95,153.42L249.4,150.61L251.84,153.26L254.29,151.11L256.73,154L259.18,152.93L261.62,153.01L264.07,156.65L266.51,158.3L268.96,157.55L273.85,160.03L276.29,159.87L278.74,161.27L281.18,164.33L286.07,165.82L288.52,165.98L290.96,164.16L293.41,165.4L295.85,164.83L298.3,165.98L300.74,164.91L303.19,166.23L305.63,166.23L308.08,168.13L310.52,167.22L312.97,167.22L317.86,171.68L320.3,171.68L322.75,175.73L325.19,171.93L330.08,174.24L332.53,172.34L334.97,170.61L337.42,170.94L339.86,168.46L342.31,170.53L344.75,169.29L347.2,170.11L349.64,167.14L352.09,166.97L354.53,168.38L356.98,167.88L359.42,170.28L361.87,164.99L364.31,167.63L366.76,165.9L371.65,158.71L374.09,156.73L376.54,154.33L378.98,154.33L381.43,157.14L383.87,155.49L386.32,151.36L388.76,149.71L391.21,147.06L393.65,148.96L396.1,148.55L398.54,151.94L400.99,153.18L403.43,155.82L408.32,160.2L410.77,159.95L413.21,160.94L415.66,159.87L418.1,162.26L420.55,161.77L422.99,159.29L425.44,158.3L427.88,159.29L430.33,162.26L432.77,160.61L435.22,162.18L440.11,164.33L442.55,167.14L445,171.43L447.45,169.29L449.89,167.39L452.34,163.17L454.78,161.93L457.23,159.37L459.67,162.68L462.12,164.33L464.56,165.73L467.01,165.07L474.34,161.77L476.79,164.49L479.23,161.44L481.68,166.06L484.12,165.24L486.57,165.82L489.01,168.21L491.46,168.79L493.9,172.76L496.35,170.2L503.68,172.67L506.13,173.58L508.57,174.99L511.02,174.66L513.46,170.2L515.91,169.95L518.35,168.54L520.8,174.49L525.69,175.07L528.13,175.4L530.58,173.75L533.02,175.15L535.47,171.68L537.91,170.77L542.8,169.12L545.25,164.16L547.69,165.98L550.14,159.79L552.58,160.45L555.03,159.7L557.47,157.31L559.92,156.23L564.81,151.61L567.25,152.68L569.7,154.91L572.14,155.74L574.59,154.33L577.03,156.89L579.48,157.14L581.92,160.78L584.37,162.76L586.81,163.75L589.26,162.18L591.7,163.34L594.15,166.64L596.59,162.35L599.04,163.75L601.48,160.45L603.93,164.49L606.37,161.69L608.82,162.51L611.26,162.43L613.71,166.15L616.15,166.31L618.6,167.8L621.04,166.97L625.93,165.82L628.38,167.3L630.82,167.3L633.27,170.86L635.71,168.87L638.16,164.16L640.6,161.11L643.05,162.59L645.49,160.94L647.94,161.85L650.38,158.63L652.83,159.12L655.27,160.03L657.72,162.18L660.16,162.76L662.61,161.44L665.05,164.25L667.5,165.16L669.95,167.22L672.39,167.39L674.84,174.57L677.28,172.26L679.73,170.61L682.17,166.23L684.62,164.08L687.06,164.25L689.51,168.13L691.95,168.96L694.4,168.71L696.84,170.69L699.29,169.53L701.73,169.29L704.18,168.79L706.62,175.07L709.07,174.66L711.51,175.65L721.29,178.04L723.74,180.03L726.18,177.55L728.63,177.88L731.07,181.76L733.52,177.96L735.96,176.56L738.41,178.21L740.85,180.11L743.3,177.14L745.74,177.8L748.19,181.43L753.08,190.19L755.52,189.78L760.41,191.26L762.86,191.43L765.3,191.18L767.75,193.99L772.64,194.73L775.08,190.93L777.53,190.85L779.97,187.46L784.86,181.43L787.31,180.61L789.75,180.52L792.2,179.53L794.64,179.53L797.09,180.85L799.53,178.62L801.98,181.43L804.42,180.27L806.87,177.88L809.31,173.5L811.76,173.58L814.2,175.4L816.65,174.57L819.09,174.08L821.54,168.13L823.98,166.81L826.43,167.47L828.87,166.81L831.32,168.46L833.76,166.31L836.21,165.98L838.65,168.21L841.1,168.71L843.54,167.88L845.99,169.62L855.77,178.7L858.21,174.33L860.66,172.43L863.1,172.34L865.55,172.18L867.99,174.82L870.44,179.04L872.88,178.04L875.33,175.9L877.77,175.65L880.22,175.15L882.66,176.56L885.11,176.23L887.55,174.49L890,179.53" style="vector-effect: non-scaling-stroke; fill: none; stroke: rgb(99, 110, 250); stroke-opacity: 1; stroke-width: 2px; opacity: 1;"/></g><g class="points"/><g class="text"/></g></g></g><g class="overplot"/><path class="xlines-above crisp" d="M0,0" style="fill: none;"/><path class="ylines-above crisp" d="M0,0" style="fill: none;"/><g class="overlines-above"/><g class="xaxislayer-above"><g class="xtick"><text text-anchor="middle" x="0" y="460" transform="translate(80,0)" style="font-family: 'Open Sans', verdana, arial, sans-serif; font-size: 12px; fill: rgb(42, 63, 95); fill-opacity: 1; white-space: pre; opacity: 1;">Jan 2023</text></g><g class="xtick"><text text-anchor="middle" x="0" y="460" style="font-family: 'Open Sans', verdana, arial, sans-serif; font-size: 12px; fill: rgb(42, 63, 95); fill-opacity: 1; white-space: pre; opacity: 1;" transform="translate(224.26,0)">Mar 2023</text></g><g class="xtick"><text text-anchor="middle" x="0" y="460" style="font-family: 'Open Sans', verdana, arial, sans-serif; font-size: 12px; fill: rgb(42, 63, 95); fill-opacity: 1; white-space: pre; opacity: 1;" transform="translate(373.41,0)">May 2023</text></g><g class="xtick"><text text-anchor="middle" x="0" y="460" style="font-family: 'Open Sans', verdana, arial, sans-serif; font-size: 12px; fill: rgb(42, 63, 95); fill-opacity: 1; white-space: pre; opacity: 1;" transform="translate(522.55,0)">Jul 2023</text></g><g class="xtick"><text text-anchor="middle" x="0" y="460" style="font-family: 'Open Sans', verdana, arial, sans-serif; font-size: 12px; fill: rgb(42, 63, 95); fill-opacity: 1; white-space: pre; opacity: 1;" transform="translate(674.15,0)">Sep 2023</text></g><g class="xtick"><text text-anchor="middle" x="0" y="460" style="font-family: 'Open Sans', verdana, arial, sans-serif; font-size: 12px; fill: rgb(42, 63, 95); fill-opacity: 1; white-space: pre; opacity: 1;" transform="translate(823.3,0)">Nov 2023</text></g></g><g class="yaxislayer-above"><g class="ytick"><text text-anchor="end" x="79" y="4.199999999999999" transform="translate(0,412.3)" style="font-family: 'Open Sans', verdana, arial, sans-serif; font-size: 12px; fill: rgb(42, 63, 95); fill-opacity: 1; white-space: pre; opacity: 1;">16.0%</text></g><g class="ytick"><text text-anchor="end" x="79" y="4.199999999999999" style="font-family: 'Open Sans', verdana, arial, sans-serif; font-size: 12px; fill: rgb(42, 63, 95); fill-opacity: 1; white-space: pre; opacity: 1;" transform="translate(0,342.9)">17.0%</text></g><g class="ytick"><text text-anchor="end" x="79" y="4.199999999999999" style="font-family: 'Open Sans', verdana, arial, sans-serif; font-size: 12px; fill: rgb(42, 63, 95); fill-opacity: 1; white-space: pre; opacity: 1;" transform="translate(0,273.5)">18.0%</text></g><g class="ytick"><text text-anchor="end" x="79" y="4.199999999999999" style="font-family: 'Open Sans', verdana, arial, sans-serif; font-size: 12px; fill: rgb(42, 63, 95); fill-opacity: 1; white-space: pre; opacity: 1;" transform="translate(0,204.1)">19.0%</text></g><g class="ytick"><text text-anchor="end" x="79" y="4.199999999999999" style="font-family: 'Open Sans', verdana, arial, sans-serif; font-size: 12px; fill: rgb(42, 63, 95); fill-opacity: 1; white-space: pre; opacity: 1;" transform="translate(0,134.7)">20.0%</text></g></g><g class="overaxes-above"/></g></g><g class="polarlayer"/><g class="smithlayer"/><g class="ternarylayer"/><g class="geolayer"/><g class="funnelarealayer"/><g class="pielayer"/><g class="iciclelayer"/><g class="treemaplayer"/><g class="sunburstlayer"/><g class="glimages"/><defs id="topdefs-4b4fd3"><g class="clips"/></defs><g class="layer-above"><g class="imagelayer"/><g class="shapelayer"/></g><g class="infolayer"><g class="g-gtitle"><text class="gtitle" x="50" y="50" text-anchor="start" dy="0em" style="font-family: 'Open Sans', verdana, arial, sans-serif; font-size: 17px; fill: rgb(42, 63, 95); opacity: 1; font-weight: normal; white-space: pre;">Monthly Retention for Rolling 28 Days</text></g><g class="g-xtitle"><text class="xtitle" x="525" y="487.8" text-anchor="middle" style="font-family: 'Open Sans', verdana, arial, sans-serif; font-size: 14px; fill: rgb(42, 63, 95); opacity: 1; font-weight: normal; white-space: pre;">Date</text></g><g class="g-ytitle"><text class="ytitle" transform="rotate(-90,14.028125000000003,273.5)" x="14.028125000000003" y="273.5" text-anchor="middle" style="font-family: 'Open Sans', verdana, arial, sans-serif; font-size: 14px; fill: rgb(42, 63, 95); opacity: 1; font-weight: normal; white-space: pre;">RetentionRate</text></g></g></svg>